<svg xmlns="http://www.w3.org/2000/svg"
  viewBox="-6820000 -4590000 10090000 7520000"
  role="img" aria-label="Coverage map of North America (NA Albers Equal Area)"
  preserveAspectRatio="xMidYMid meet">
<style>
  path { fill: var(--covered-fill, #4fd1a3); stroke: var(--covered-stroke, rgba(0,0,0,0.35)); stroke-width: 2000; stroke-linejoin: round; }
</style>
<path data-iso="CA-AB" data-country="CA" data-name="Alberta" d="M -1263972.2827137671 -1353029.5720615394 L -1378832.1904583075 -1591805.4617850648 -1431258.044061817 -1626732.3385023852 -1445473.1849903914 -1724182.2182362599 -1504023.2014568832 -1781409.4744923254 -1325000.309178194 -2498787.2152943257 -778721.2824085897 -2387689.0913676876 -965227.1974447763 -1133950.9689928084 -1242264.1901370264 -1181178.2941909244 -1274645.3678276897 -1260764.9824948374 Z"/>
<path data-iso="CA-BC" data-country="CA" data-name="British Columbia" d="M -2230166.767366446 -1984524.1204936018 L -2241534.879768478 -1817920.0459352452 -2291569.0830579908 -1981595.8827251738 -2264947.2120398884 -2129553.271768378 -2212493.6749315867 -2080569.856558525 -2180677.853168533 -2087636.7372375163 Z M -1863775.314090342 -1333267.1461622044 L -1850730.1032033535 -1300600.5562322612 -1904511.993473637 -1249892.488921367 -1974605.2316059768 -1304443.4153980792 -2127204.612909449 -1551695.4647047643 -2133697.6354864896 -1642198.06259746 -2172092.495997792 -1663415.999641576 -2086278.0960966635 -1648309.0175237725 -2074875.4672510203 -1690287.7925392438 -2086518.457522364 -1800335.350486841 -2127451.427880892 -1852869.3759750302 -2108032.052128321 -1895909.6620455119 -2161157.4357245434 -1981431.201992714 -2137082.406740069 -2006529.7828000467 -2145869.9588289545 -2113321.997996322 -2043152.567621718 -2165015.9657341167 -2016605.077320392 -2258224.8830270367 -2094073.070002145 -2346622.6820478113 -2099652.413861727 -2573448.6828963896 -2140907.912436101 -2745655.5286352313 -2202381.748465549 -2761390.5051453076 -2234789.2626910848 -2722640.1018832787 -2295687.679546615 -2718684.7664627247 -2321057.716563523 -2866472.659551881 -1822108.3581005812 -2653709.672120567 -1325000.309178194 -2498787.2152943257 -1504023.2014568832 -1781409.4744923254 -1445473.1849903914 -1724182.2182362599 -1430948.0138715643 -1626104.9906379364 -1378832.1904583075 -1591805.4617850648 -1269542.5435549703 -1376238.5626827097 -1274082.5264997599 -1256481.4234549953 -1240700.6226659883 -1184147.6537839863 Z"/>
<path data-iso="CA-MB" data-country="CA" data-name="Manitoba" d="M -370698.7750971825 -1072990.7925213804 L -335001.903367129 -2340656.2233811193 65498.23224138759 -2330440.8232165426 87936.51515744145 -2187936.0720976703 162340.3157858742 -2189693.6507023405 210535.7975308403 -2037116.5970820969 196690.56739566984 -1993621.9992200616 301811.32760021894 -2030185.1793551648 417272.53143086855 -1990031.9807674203 54524.9684536704 -1512596.0641230878 58574.627150496905 -1062694.0213692025 Z"/>
<path data-iso="CA-NB" data-country="CA" data-name="New Brunswick / Nouveau-Brunswick" d="M 1956931.8596303815 -1152413.869704479 L 1896705.0991745489 -1128583.0101715846 1934763.136645403 -1231346.697005848 1990601.6139008915 -1229279.2151546895 2047820.5716912388 -1277753.5999971842 2114698.61721222 -1267357.0977552384 2183923.69290674 -1339717.127466043 2271028.897534046 -1293221.837685019 2217626.5364038087 -1183192.87692797 2246592.4427954387 -1135741.0168368297 2314046.0971729183 -1120403.9832003696 2164397.0361110303 -846243.4490679967 2118172.537920626 -838115.7652299721 2132373.5636135163 -896423.31733427 2034986.7686251036 -977398.2121932223 1989396.4629328211 -1133030.9117894627 Z"/>
<path data-iso="CA-NL" data-country="CA" data-name="Newfoundland and Labrador" d="M 1751121.7365993366 -2030306.2164206158 L 1793718.2545877758 -2008676.6249255778 1762896.0927110983 -2077141.889012157 1851443.4026042407 -2027274.360334029 1877573.057869741 -2067824.2256067605 1971082.246665158 -2058114.5647898335 1963456.598235253 -2151706.631803176 1934029.7579274236 -2147992.432724313 1913544.664846693 -2194703.886422806 1932425.9879559919 -2215955.9357887786 1897151.2309140742 -2208407.0844315593 1875572.252664683 -2243941.0255957814 1858242.4184085983 -2396794.256628676 1798741.7514157828 -2418795.4457484833 1818403.83046279 -2472507.4769436507 1797464.8557087367 -2490578.161750772 1826546.7142288745 -2507966.436296817 1743291.9243843216 -2499929.695984354 1774380.34690757 -2519493.4409689265 1752650.5974225074 -2571269.5600621416 1717888.0464028877 -2565746.9444704475 1697186.5689702576 -2641420.5543281855 1732960.0030973833 -2678181.4243391915 2192582.156447376 -2256186.6971068853 2366985.657218365 -2246793.071536485 2403751.6162888343 -2192247.7202645517 2510069.3248459366 -2137437.0144161107 2603559.3629186023 -1987615.0002507584 2665321.3506396725 -1791573.4528473697 2777788.3255881225 -1801847.068511545 2904706.901710521 -1703297.1329326432 2993278.564466405 -1589245.102984387 3008642.665492726 -1461838.124553168 2805259.622789363 -1387012.7680977955 2728113.948416886 -1448469.5619109517 2709212.6395599013 -1413035.185584116 2554115.8662966625 -1371176.8571720815 2458275.383177006 -1383692.3414961838 2409479.600788354 -1493642.5660929186 2503272.9545616917 -1831709.6984180652 2475115.1997922035 -1929231.852715834 2067194.5741613081 -1768693.0165671054 2031007.6988772056 -1814495.5444653132 2067578.1043107728 -1850574.5312123885 2044642.407986522 -1870208.3946787536 2017999.9262119853 -1841521.0161668148 2037004.504134538 -1705861.9257977167 1959070.5507004159 -1745130.8451697172 1903006.4303885272 -1731039.153711954 1871904.8488085992 -1828264.7437725316 1860118.3912302724 -1781185.8666817157 1816446.1460369108 -1795383.0510187612 1826020.8938359504 -1861378.4672489206 1748533.3780733296 -1911651.8293760878 1737867.7818365772 -1958142.5903010957 1771130.7445461259 -1997151.674681027 Z M 2842374.1573816356 -1809480.2609272276 L 2833332.439201435 -1778623.1756586474 2803657.1964707226 -1790913.5030155978 2812580.806382618 -1821380.401080349 Z"/>
<path data-iso="CA-NS" data-country="CA" data-name="Nova Scotia" d="M 2654377.527149748 -1011351.8420862596 L 2692590.9827148756 -987833.4764518022 2638400.063133061 -950746.9453964331 2618086.3357057627 -981428.262894384 Z M 2548718.798069189 -1370708.5152964902 L 2516597.2786620813 -1305143.3974255924 2604425.8219016786 -1212545.3715688493 2546600.83340079 -1079412.8675545237 2361685.3114133202 -892363.0201539878 2304249.9738823995 -765052.8404393785 2236080.9148850567 -738145.5361288477 2164397.0361110303 -846243.4490679967 2193474.09318953 -936312.8517344247 2246981.439245891 -987975.7379303477 2286189.6033744616 -1100755.1074571246 2413568.606872988 -1136824.5371706935 2458275.383177006 -1383692.3414961838 Z"/>
<path data-iso="CA-NT" data-country="CA" data-name="Northwest Territories" d="M -1192589.958418274 -3937830.520460373 L -1072430.200976908 -4041035.6849643583 -1062149.3104585356 -4085830.766848239 -515890.393216023 -4152720.354270835 -624746.426292628 -3420812.7268754574 -937858.2695806489 -3479475.074385974 -924410.2095161455 -3440272.3257742273 -1103739.4028844608 -3476594.736609008 -1143063.6171392563 -3329387.655780556 -813138.6612932795 -2995722.6256973306 -723559.701639541 -2980862.719579606 -668029.9663990989 -2901992.9358759783 -305425.4916689193 -2801154.8643520954 -335001.903367129 -2340656.2233811193 -847182.9267461819 -2398299.382561211 -1334460.8559761574 -2501250.4264886896 -1529618.3696013219 -2556195.2616099115 -1539315.5116938422 -2669540.087520907 -1664107.0129927518 -2687728.1699667363 -1654301.0786507048 -2766137.857056945 -1737615.0040103958 -2875430.988348999 -1715409.8914823283 -3063412.8680769503 -1796008.4148835458 -3205769.2436592854 -1736743.5570993759 -3312458.130176786 -1796870.9705763538 -3333524.8402832905 -1763866.668928134 -3435704.793564792 -1866581.860820099 -3480505.7777957357 -1851421.885217219 -3546890.9616509913 -1767997.285982176 -3717258.9958563456 -1677170.7791179838 -3718153.84103941 -1641724.274724731 -3682809.9232818848 -1412636.851840365 -3693559.8583455044 -1235983.7061257765 -3816489.17180486 -1183385.2074004246 -3875692.5745447488 Z"/>
<path data-iso="CA-NU" data-country="CA" data-name="ᓄᓇᕗᑦ Nunavut" d="M 1426592.3116829183 -2649217.0840746975 L 1413843.0454229997 -2614782.3156389883 1393104.9440244196 -2642284.6039304654 1314814.5523261605 -2629339.647032143 1303580.2689083277 -2677951.735869624 1267788.3279192077 -2661658.069174234 1263126.8987142732 -2695661.0237444183 1232996.2708727275 -2683150.6471723425 1234999.4473192883 -2716039.566176047 1170719.3615484238 -2741604.5681844414 1136003.6002349125 -2690392.2441236232 974624.0300121283 -2709805.703916393 944581.5526660866 -2679799.2368476377 961206.5915369798 -2612407.5407770504 994974.0374315457 -2596175.6237282306 969719.0207212919 -2508304.5843276884 1007039.4193423033 -2522122.9777448527 1002475.5310469195 -2469637.6636731084 1041706.5882057671 -2438818.741862297 992680.3269042419 -2273063.9255613154 1114962.7243125513 -2180605.057585014 1162416.6741496595 -2040732.028539061 1112257.519692824 -1899728.2474020442 1006028.4076003234 -1808345.7730442889 1067436.2728472566 -1743576.3875290013 1132737.0273164476 -1547235.8496793369 1108972.395535862 -1486086.0931042943 1127711.1317384923 -1430444.8892208221 1093491.2623586673 -1471672.908812374 1072567.7957485742 -1408069.612206531 1030219.9038705005 -1422010.966508856 877375.7063326453 -1594393.3885062644 839921.424003092 -1840375.491250055 671372.5601517011 -1832664.6082836415 316877.7340348006 -2027878.6383956545 196690.56739566984 -1993621.9992200616 210535.7975308403 -2037116.5970820969 162340.3157858742 -2189693.6507023405 87936.51515744145 -2187936.0720976703 65498.23224138759 -2330440.8232165426 -335001.903367129 -2340656.2233811193 -305425.4916689193 -2801154.8643520954 -668029.9663990989 -2901992.9358759783 -723559.701639541 -2980862.719579606 -813138.6612932795 -2995722.6256973306 -1143063.6171392563 -3329387.655780556 -1103739.4028844608 -3476594.736609008 -924410.2095161455 -3440272.3257742273 -937858.2695806489 -3479475.074385974 -624746.426292628 -3420812.7268754574 -515890.393216023 -4152720.354270835 -55924.35615848776 -4198465.817659711 153724.51270469013 -4284477.969661176 1243837.2448560658 -4537399.4101787275 825930.3178276448 -4213603.025898082 843990.5012597747 -4192695.487575891 796129.235718633 -4126640.0007087924 711702.2006326084 -4064607.443970925 734358.3922451932 -4016212.1609451612 667322.0055037203 -3835836.6424038387 681779.3597712448 -3781592.5739380275 792465.4562436831 -3785040.3633891577 971144.1235580093 -3670437.37102054 1221823.4351590013 -3623090.885310898 1291275.1521898203 -3579253.093860471 1357971.139085143 -3459160.2817337946 1661344.761663465 -3357344.728658867 1659668.8289663703 -3231405.279832161 1600186.2981469473 -3066610.612891856 1683393.8150600453 -2943089.700087652 1671729.3090083068 -2812123.5981662576 1732960.0030973833 -2678181.4243391915 1693312.8648202133 -2652019.5288660973 1684464.4601055586 -2477676.176206912 1619238.602602324 -2379299.35790531 1556405.7463464704 -2428214.3007826395 1510755.4407040488 -2425220.964348728 Z"/>
<path data-iso="CA-ON" data-country="CA" data-name="Ontario" d="M 57942.416421056776 -1131684.2335939182 L 54524.9684536704 -1512596.0641230878 423665.1939500263 -1991751.694293188 523037.51541975915 -1896083.6144796284 671372.5601517011 -1832664.6082836415 844645.275754633 -1836465.502002708 882235.7296628208 -1586333.7597107652 1030219.9038705005 -1422010.966508856 1072567.7957485742 -1408069.612206531 1083939.2828175589 -1448978.0818455708 1161403.6227441023 -978999.5846954351 1224215.0634069594 -880988.0140964525 1394408.7687124626 -835781.724711821 1434451.491720213 -793897.6276914354 1573870.9125430088 -837874.6986619795 1588511.6850420663 -795371.7160377192 1520270.7576405893 -729495.6846609149 1446726.5013144494 -575940.7214978625 1305737.2880461032 -548449.49970013 1271419.4925646686 -520502.61560188496 1304447.809904333 -451736.84998767095 1039438.4516324888 -271068.75194097124 997175.8665181549 -308664.5620298188 1049588.3269857622 -501146.10701528605 990585.3413781102 -701269.7859958846 904369.1618993285 -746978.6652823106 901805.1583938499 -780533.1020378168 874861.5860949501 -771197.2170833617 855337.1347783697 -825108.4395613591 825654.0766552547 -813149.441664699 797947.5475130802 -860726.6455663232 533780.7360430271 -1002371.7583480087 468949.0201637293 -958272.4787594428 358371.76090700505 -983466.415531562 311750.1452281196 -957268.3202759952 211996.78824787444 -1022612.1924714282 153946.169566675 -1007429.9258940578 90910.08386946512 -1037072.0635227372 Z"/>
<path data-iso="CA-PE" data-country="CA" data-name="Prince Edward Island" d="M 2216699.708750355 -1205805.1053394487 L 2271028.897534046 -1293221.837685019 2370866.809716048 -1233921.0118104094 2431425.5387842176 -1256732.0543846118 2431760.7940676245 -1178022.8459632932 2378818.9496053657 -1112213.1465158649 2246592.4427954387 -1135741.0168368297 Z"/>
<path data-iso="CA-QC" data-country="CA" data-name="Québec" d="M 1823494.0283405879 -1793481.8493227742 L 1860118.3912302724 -1781185.8666817157 1871904.8488085992 -1828264.7437725316 1903006.4303885272 -1731039.153711954 1959070.5507004159 -1745130.8451697172 2037188.9910444068 -1705844.5669664848 2017999.9262119853 -1841521.0161668148 2044642.407986522 -1870208.3946787536 2067578.1043107728 -1850574.5312123885 2031007.6988772056 -1814495.5444653132 2067194.5741613081 -1768693.0165671054 2475115.1997922035 -1929231.852715834 2503272.9545616917 -1831709.6984180652 2409479.600788354 -1493642.5660929186 2458275.383177006 -1383692.3414961838 2431425.5387842176 -1256732.0543846118 2312497.5243337746 -1250166.1283963816 2235550.921347301 -1330314.8615753825 2183923.69290674 -1339717.127466043 2114698.61721222 -1267357.0977552384 2047820.5716912388 -1277753.5999971842 1990601.6139008915 -1229279.2151546895 1934763.136645403 -1231346.697005848 1932166.343265149 -1175327.5342041661 1895247.6398613052 -1133516.2490646574 1878121.324394302 -1148153.2184850886 1849738.3836903495 -1046254.3948302882 1846441.3961642599 -884514.6045538302 1795999.9416187769 -825660.4682962797 1568803.1533651592 -767871.7306976796 1573870.9125430088 -837874.6986619795 1434451.491720213 -793897.6276914354 1394408.7687124626 -835781.724711821 1246502.8050609564 -861178.769539962 1161498.598115527 -978642.5812911809 1081072.291753048 -1455708.5575725902 1099532.3911584935 -1470342.9780839689 1127711.1317384923 -1430444.8892208221 1128506.7973547631 -1572066.3615884047 1086159.5722231036 -1630032.515356781 1067436.2728472566 -1743576.3875290013 1005609.2554888977 -1806323.8027723974 1112257.519692824 -1899728.2474020442 1163017.4179716578 -2031715.234549851 1114962.7243125513 -2180605.057585014 992680.3269042419 -2273063.9255613154 1041706.5882057671 -2438818.741862297 1002475.5310469195 -2469637.6636731084 1007039.4193423033 -2522122.9777448527 969565.2794779743 -2508881.213885096 994974.0374315457 -2596175.6237282306 941315.094911933 -2667367.7743107835 970131.2387085572 -2709079.325883539 1135934.843987286 -2690380.6649953644 1170719.3615484238 -2741604.5681844414 1234999.4473192883 -2716039.566176047 1232996.2708727275 -2683150.6471723425 1263126.8987142732 -2695661.0237444183 1267788.3279192077 -2661658.069174234 1303580.2689083277 -2677951.735869624 1314814.5523261605 -2629339.647032143 1393104.9440244196 -2642284.6039304654 1413843.0454229997 -2614782.3156389883 1427228.7901974907 -2648959.43995824 1487241.9046353607 -2444776.8720395314 1616928.8136084755 -2379161.366156331 1684464.4601055586 -2477676.176206912 1678851.7244220176 -2572532.0343710957 1713569.5537162933 -2651148.050809436 1717888.0464028877 -2565746.9444704475 1752650.5974225074 -2571269.5600621416 1774380.34690757 -2519493.4409689265 1743291.9243843216 -2499929.695984354 1826546.7142288745 -2507966.436296817 1797464.8557087367 -2490578.161750772 1818403.83046279 -2472507.4769436507 1798741.7514157828 -2418795.4457484833 1858242.4184085983 -2396794.256628676 1875572.252664683 -2243941.0255957814 1897151.2309140742 -2208407.0844315593 1932425.9879559919 -2215955.9357887786 1934029.7579274236 -2147992.432724313 1964943.7847776313 -2146646.057380593 1961141.2208874244 -2051631.7842407834 1877573.057869741 -2067824.2256067605 1851443.4026042407 -2027274.360334029 1762896.0927110983 -2077141.889012157 1793718.2545877758 -2008676.6249255778 1734542.9686228435 -2032751.6399988525 1770975.2061237458 -1999430.528698721 1737867.7818365772 -1958142.5903010957 1748533.3780733296 -1911651.8293760878 1826020.8938359504 -1861378.4672489206 Z"/>
<path data-iso="CA-SK" data-country="CA" data-name="Saskatchewan" d="M -778721.2824085897 -2387689.0913676876 L -335001.903367129 -2340656.2233811193 -370698.7750971825 -1072990.7925213804 -965227.1974447763 -1133950.9689928084 Z"/>
<path data-iso="CA-YT" data-country="CA" data-name="Yukon" d="M -1866698.412548503 -3481229.979958286 L -1763866.668928134 -3435704.793564792 -1796899.2603555417 -3333585.5252774023 -1736743.5570993759 -3312458.130176786 -1796022.753240537 -3206062.2443679706 -1715409.8914823283 -3063412.8680769503 -1737615.0040103958 -2875430.988348999 -1654301.0786507048 -2766137.857056945 -1664107.0129927518 -2687728.1699667363 -1539226.5204882578 -2669437.92762373 -1529618.3696013219 -2556195.2616099115 -2158757.551109551 -2790524.0350981387 -2321057.716563523 -2866472.659551881 -2304506.5941960923 -2902071.2782677854 -2402274.230969833 -2945333.181356129 -1947203.6762867803 -3830921.2703760467 -1786358.3106174502 -3705702.8282506494 Z"/>
<path data-iso="MX-AGU" data-country="MX" data-name="Aguascalientes" d="M -692005.8560026538 2084445.349639765 L -679356.345686879 2021505.8456152123 -641820.2721698557 2005557.2211959555 -598194.976980695 2054622.5131840853 -639784.3659921684 2095744.8048322513 Z"/>
<path data-iso="MX-BCN" data-country="MX" data-name="Baja California" d="M -1662432.6133365505 689076.631904315 L -1702607.6308259603 737118.4839685581 -1715161.2068728835 977215.1661847673 -1585331.5764052467 1206896.2808056145 -1586610.35700315 1258030.4513847865 -1721257.566795378 1232911.8452567272 -1703458.077676721 1161515.5363603702 -1819043.668347728 1007270.689850037 -1877349.5858094038 665154.8614810781 Z"/>
<path data-iso="MX-BCS" data-country="MX" data-name="Baja California Sur" d="M -1749436.243297481 1328547.4402858086 L -1806116.1361580812 1233291.6717547302 -1586610.35700315 1258030.4513847865 -1490046.29520142 1446419.110628533 -1454981.957286585 1700513.6445788858 -1375844.1664985989 1746150.653491154 -1345737.2546538734 1820521.339139081 -1361980.3521062538 1856053.762300624 -1410879.465000122 1875093.4991509465 -1434527.9658364195 1793701.906724023 -1590258.6249590577 1655678.7250691315 -1583312.852699559 1468961.4552594328 Z"/>
<path data-iso="MX-CAM" data-country="MX" data-name="Campeche" d="M 582165.0058046319 2189187.557773114 L 583432.8163330134 2221673.1579381563 623615.6447032293 2226833.722313461 721157.1309910858 2338152.305854976 733366.6083034872 2514529.4390252163 536987.4501826599 2526858.1495034983 479272.23286212754 2490727.462119855 466983.0461244982 2523946.130780439 380170.0627040614 2457585.476497748 552429.5778237545 2361830.945811093 Z"/>
<path data-iso="MX-CHH" data-country="MX" data-name="Chihuahua" d="M -1150462.2082355197 1532622.4328002003 L -1171093.6044666057 1433971.4672517672 -1209964.161218569 1428295.7541781554 -1237311.8640429056 1297990.0311713945 -1178252.9520070036 1278652.8638698193 -1191086.1964326587 1174316.0636049458 -1155055.6523226483 1059483.778081862 -1185091.8177259983 1002549.748473091 -1156877.7146946273 974973.2301776615 -1173787.2989271565 948448.6317574746 -1108899.672783669 943068.4421711479 -1102196.7262542476 891295.092162186 -951168.022444384 909471.7303118394 -819426.3246895723 1060424.750592173 -791524.8004286805 1175558.5008970923 -685383.4392238472 1254793.658778484 -756371.0135439644 1372571.9600285208 -743460.3026878659 1514201.1278997338 -797583.439354991 1496233.2165883726 -831730.5697926823 1550614.685071685 -968028.0686157829 1479426.9256708587 -1042511.1487300523 1618503.7800406376 Z"/>
<path data-iso="MX-CHP" data-country="MX" data-name="Chiapas" d="M 349599.3886939319 2586682.1203719187 L 448274.52928297134 2521845.0443341928 462462.30817435 2568632.7441720325 612243.7850017255 2680423.3302860227 606490.5690727469 2713028.8657057066 465894.4857391065 2720312.3694919758 417160.22406076116 2810455.175642574 418331.0042329485 2889054.5766649814 206988.43025462094 2721288.889134578 230863.21161718832 2609660.2485154676 291146.47338141786 2518265.553742618 Z"/>
<path data-iso="MX-CMX" data-country="MX" data-name="Ciudad de México" d="M -327868.2571094898 2340269.176089783 L -314903.7071427611 2397818.1646783412 -346354.1717681718 2390467.5024736696 Z"/>
<path data-iso="MX-COA" data-country="MX" data-name="Coahuila" d="M -738243.2366070749 1679669.121751202 L -705064.9861116227 1567586.933448097 -756550.6956194469 1493566.730243401 -756371.0135439644 1372571.9600285208 -620358.0976206234 1176363.0846105004 -502059.71574920334 1180740.173344037 -366537.74307973695 1417175.3087995304 -399347.22672537895 1412874.3226086544 -464108.32060412545 1478516.1764154157 -438085.3287904268 1524419.0318928545 -505313.1594240241 1571036.8509680328 -416385.11608608207 1706500.3627517659 -473106.1775721863 1709771.1943370334 -492109.33831961924 1779351.0296393696 -620215.6528366944 1705692.952931314 -679839.4837824352 1745046.0103705751 Z"/>
<path data-iso="MX-COL" data-country="MX" data-name="Colima" d="M -820672.6457642355 2412217.0504129482 L -916253.9366216087 2348662.1531947935 -800699.5575837892 2322252.002078378 Z"/>
<path data-iso="MX-DUR" data-country="MX" data-name="Durango" d="M -913869.0854589605 1969056.3582561032 L -909260.2893072745 1925402.7938423357 -971886.7316155976 1900626.4006108982 -1001749.2681621178 1769587.038150588 -1046224.2445725875 1762038.9375511357 -1099642.3300847614 1637825.3638386866 -1074466.7160564766 1603065.3882233677 -1021944.602105399 1601372.3466654252 -968028.0686157829 1479426.9256708587 -831730.5697926823 1550614.685071685 -797583.439354991 1496233.2165883726 -713238.9867439591 1530665.1022767154 -738322.5280500079 1679588.2133867794 -679839.4837824352 1745046.0103705751 -657486.4655086575 1709794.9869812697 -644757.2701191648 1751182.2912909787 -643777.6570505834 1783171.2989908557 -736868.1180901863 1776054.189948829 -785728.7684839955 1820062.1491110292 -845846.2807538351 1992793.1985474154 Z"/>
<path data-iso="MX-GRO" data-country="MX" data-name="Guerrero" d="M -276513.5477486764 2519931.0618604487 L -216925.2856422614 2623447.7036354807 -277988.67460266966 2700763.923729805 -545415.6034156678 2586542.9508075328 -660658.0907022627 2492765.245508147 -611981.2397954148 2435735.671726727 -494608.4355412369 2470752.817859618 -488223.6872764437 2411445.190863736 -458391.1532255173 2470170.5544893686 -392004.01092789415 2426846.1452813474 Z"/>
<path data-iso="MX-GUA" data-country="MX" data-name="Guanajuato" d="M -474472.5209392388 2198493.4730103607 L -451018.59177546075 2262347.406759586 -473248.2723256298 2298242.634460571 -634789.6315455443 2237554.540582796 -560779.9184774768 2081145.9444591126 -388470.5854631422 2126726.492047327 -380532.44313039153 2157032.2593653062 Z"/>
<path data-iso="MX-HID" data-country="MX" data-name="Hidalgo" d="M -351056.3231351181 2171916.844212301 L -255512.8693016487 2141939.9425124135 -221994.35447656972 2178529.959641124 -265636.53143115836 2257049.5398820383 -206515.8689122901 2241027.3013097835 -238335.78153284328 2268559.1385985953 -230414.96625629213 2326458.642521122 -279881.60644988116 2340322.53972081 -312497.7385770708 2288056.660481911 -354851.64491670456 2319500.2601550817 -366743.277140328 2274354.4010941624 -402581.07572641195 2263015.277154559 Z"/>
<path data-iso="MX-JAL" data-country="MX" data-name="Jalisco" d="M -907238.0600038199 2144911.970915934 L -856811.2432567688 2196318.6538158203 -847746.7080041862 2133135.6767045083 -797921.5268864053 2119446.710147658 -855495.0636007602 2042937.1652892735 -811688.2671624895 1960023.6774279778 -785645.4625696307 1966185.111229975 -801911.6478689138 2026120.0406988706 -784321.3768275212 1981816.8348498086 -784209.8317357162 2034047.3638009918 -740988.7863437351 2003224.3963420296 -719051.892976076 2023633.3743147387 -789854.1268192929 2095984.8360436654 -781341.1215768008 2145368.9204011937 -732255.1799035101 2154861.5283446037 -683927.2047479652 2124708.8751871185 -691686.2024955924 2084707.0431554427 -639784.3659921684 2095744.8048322513 -599068.1947754305 2056300.161162387 -564716.0616961938 2084086.981340998 -631965.3533904206 2234973.4464211944 -735451.4617651054 2259459.9993224014 -688563.3877113846 2339673.6810286953 -753780.246805059 2390322.0314967707 -792491.8953204579 2382855.4496887634 -800699.5575837892 2322252.002078378 -906085.5186845778 2353324.619595619 -941047.3379780699 2332547.139341482 -1008162.271151637 2205936.198079355 Z"/>
<path data-iso="MX-MEX" data-country="MX" data-name="Estado de México" d="M -414861.79906468187 2261663.2115730047 L -366743.277140328 2274354.4010941624 -354790.96502685617 2319525.8175023636 -312497.7385770708 2288056.660481911 -315349.0621159901 2314526.419751386 -280076.8192585907 2311772.982655382 -277072.0298388089 2403278.211070509 -314903.7071427611 2397818.1646783412 -328311.36155643937 2340169.984312684 -370741.80651210726 2434865.4455193803 -458351.418141903 2470180.5252835033 -488477.7464439401 2410814.759254984 Z"/>
<path data-iso="MX-MIC" data-country="MX" data-name="Michoacán" d="M -691144.8212374955 2330391.4843545873 L -735482.3170367344 2259515.2410594975 -670285.8046878256 2239999.882876187 -570205.0425415913 2247391.0044859825 -564743.5330837585 2280571.67851106 -497218.87721242296 2297742.3543172474 -456458.5040914871 2291158.43541959 -453106.56643740996 2257139.872915723 -425743.3588082977 2306699.1636668174 -507733.2398670122 2416392.557699727 -494608.4355412369 2470752.817859618 -613000.775081471 2435907.16458378 -661494.1673551876 2508568.078639757 -784428.4459568227 2461330.459079869 -820672.6457642355 2412217.0504129482 -703529.6543266921 2362799.722206759 Z"/>
<path data-iso="MX-MOR" data-country="MX" data-name="Morelos" d="M -347115.3122485461 2390850.845081893 L -278513.86780723697 2405388.3040770395 -288104.5666970212 2467888.601304795 -357252.55828968337 2463197.3247765983 Z"/>
<path data-iso="MX-NAY" data-country="MX" data-name="Nayarit" d="M -990620.1044943731 1967633.5584242293 L -958460.1667664499 1971616.9183333316 -946480.2189928967 1909653.0800386008 -909260.2893072745 1925402.7938423357 -912804.7365122443 1978943.9794625822 -891105.2747155074 1964185.2144820013 -843737.8486374506 2000280.7676213963 -855485.1501410595 2042973.2501313824 -794214.9790487383 2109921.0333699696 -847746.7080041862 2133135.6767045083 -856811.2432567688 2196318.6538158203 -907238.0600038199 2144911.970915934 -963229.438193444 2179058.7017706567 -987987.304735923 2165314.8418490514 -944303.703511169 2092524.8424635588 Z"/>
<path data-iso="MX-NLE" data-country="MX" data-name="Nuevo León" d="M -451798.71398998983 1933521.6693987693 L -473106.1775721863 1709771.1943370334 -416385.11608608207 1706500.3627517659 -505313.1594240241 1571036.8509680328 -446121.819989706 1538065.5322513988 -436390.99424203095 1497418.7738733215 -464382.59078395093 1478929.4150780276 -399347.22672537895 1412874.3226086544 -356025.8976919035 1428433.960851658 -375143.39966120454 1449143.783312485 -330448.47141729895 1586387.536156695 -252071.77717851193 1621522.0809281953 -237661.50373196547 1681969.0364322313 -370481.33162727003 1783653.2007366135 -345923.783323484 1862290.180569814 Z"/>
<path data-iso="MX-OAX" data-country="MX" data-name="Oaxaca" d="M 116848.24904901179 2715710.9904507636 L -54636.51207055946 2775815.428162936 -195454.77184192807 2738873.2405163087 -277970.266490444 2700794.008824483 -216925.2856422614 2623447.7036354807 -267671.7022465852 2542626.5085411957 -181809.91768271514 2519023.843822264 -191658.2052029904 2487963.5770630264 -159255.2212054794 2516777.756438378 -91239.80557445396 2493982.70962807 -72533.14729283334 2447060.277621096 17821.381975485965 2506674.268371899 32016.67382698165 2573473.7587977624 81692.4050555766 2549099.1083872886 116263.42923204336 2608329.274102496 230226.3337007525 2612596.13298319 202338.13023773796 2686708.9672608236 218492.5945621758 2736176.0993701187 Z"/>
<path data-iso="MX-PUE" data-country="MX" data-name="Puebla" d="M -288104.5666970212 2467888.601304795 L -279268.34263213334 2355672.3744948218 -228922.85220530664 2396776.975558516 -171466.84543262128 2373788.0777755794 -242625.88100663762 2313612.6385163306 -219162.76364958737 2282015.5439059637 -238335.78153284328 2268559.1385985953 -175264.38653307638 2210228.9264315916 -183395.7742368994 2275616.9524077587 -117274.80500044517 2284706.6665268764 -146932.26233023024 2364798.6287425975 -103961.98565489709 2379631.7601602017 -142694.15202667267 2444542.81399 -77507.8219975099 2477172.0707584294 -156865.528838758 2516666.064427643 -191658.2052029904 2487963.5770630264 -194778.0094680427 2528304.837884508 -256954.98987418582 2532817.395420878 -326779.65018036566 2487977.173285612 Z"/>
<path data-iso="MX-QUE" data-country="MX" data-name="Querétaro" d="M -465548.1033176973 2246680.2880799626 L -462974.39450007945 2186601.54870142 -420720.92675675364 2187632.1946360683 -380532.44313039153 2157032.2593653062 -385052.9264519467 2117526.1924477704 -350643.6534798216 2135573.8873823974 -327328.5810421056 2109406.6812228947 -314194.7610753613 2164636.660798624 -351080.9679526675 2171945.9529298004 -410467.38162737555 2284917.401600448 Z"/>
<path data-iso="MX-ROO" data-country="MX" data-name="Quintana Roo" d="M 935885.8161945757 2098532.496389841 L 952312.5136591959 2139558.275070472 866289.1169342082 2300010.306929721 901710.1419507194 2304810.3367263186 869544.1628302039 2462454.3373994795 799614.4197116676 2434883.2671518847 763939.5336743694 2503627.98821712 726511.8694410123 2499816.895516201 704417.4476264961 2325257.301693736 856542.2951088541 2190727.647494568 869899.2544605273 2096161.0079966276 Z"/>
<path data-iso="MX-SIN" data-country="MX" data-name="Sinaloa" d="M -1171068.051736316 1722297.6572079891 L -1139884.8217917432 1750705.5845978663 -1141430.6945874596 1723067.8329361565 -1308097.470186104 1575276.569502244 -1287430.6094601548 1504944.753165221 -1224124.543191236 1478185.8135015704 -1198795.3503600603 1429718.5858662417 -1171093.6044666057 1433971.4672517672 -1149394.1701452427 1534234.204937788 -1071159.5924635178 1599311.9476865493 -1095728.628397781 1670066.48018022 -1046224.2445725875 1762038.9375511357 -999187.0975674565 1775597.817582999 -992043.4076137907 1852090.4405142043 -947227.4220413909 1909502.3741388198 -958460.1667664499 1971616.9183333316 Z"/>
<path data-iso="MX-SLP" data-country="MX" data-name="San Luis Potosí" d="M -410865.0797546306 1946433.7843007944 L -415061.2450156462 1984976.5314061556 -237256.05512256845 2047963.2568113797 -270267.37637231045 2164210.040407174 -320113.6640323052 2152084.937842639 -327328.5810421056 2109406.6812228947 -360757.30829923745 2136288.0443168916 -563191.0046073401 2082958.4742934164 -542442.9762727427 1983060.3705943995 -589677.9723666795 2007361.3157155826 -633787.4813629278 1908961.368743254 -580547.0304316647 1898028.118528412 -467846.46225112316 1786380.2998852085 -451798.71398998983 1933521.6693987693 Z"/>
<path data-iso="MX-SON" data-country="MX" data-name="Sonora" d="M -1372276.7344887217 902694.4585820878 L -1158343.9996838789 936631.7287242687 -1185091.8177259983 1002549.748473091 -1155055.6523226483 1059483.778081862 -1191086.1964326587 1174316.0636049458 -1178252.9520070036 1278652.8638698193 -1237405.7244179486 1296187.118054761 -1193887.8312605554 1437426.7620964418 -1271511.8288162868 1505035.5542308022 -1395243.943274314 1369862.128013678 -1379164.300096063 1309906.4439251411 -1432070.9497118706 1291604.6171432417 -1512203.3547582806 1158234.7398884834 -1552768.221152787 889552.4447852017 -1698740.1429783467 782632.412877547 -1702607.6308259603 737118.4839685581 -1675793.7874257544 713041.4443992026 Z"/>
<path data-iso="MX-TAB" data-country="MX" data-name="Tabasco" d="M 199965.61738856015 2495155.442300039 L 374965.3018590873 2442455.4756969665 431248.0861694105 2509915.494016031 536109.2905484485 2510778.275648195 540294.355024832 2588423.001414352 491543.181520997 2590933.5446718284 428030.34691391845 2518008.534512951 352237.4972937138 2586063.694938228 291146.47338141786 2518265.553742618 257744.16225881944 2592513.152901819 Z"/>
<path data-iso="MX-TAM" data-country="MX" data-name="Tamaulipas" d="M -111911.55239323791 1631612.5230274983 L -167628.57795629307 1800709.745550724 -188270.05874099027 2053079.7049950028 -415801.7288120753 1983650.365176575 -417329.7042607526 1918752.4416883572 -345923.783323484 1862290.180569814 -370481.33162727003 1783653.2007366135 -237935.54765992324 1686713.772544726 -252071.77717851193 1621522.0809281953 -330448.47141729895 1586387.536156695 -375565.37938705785 1442527.6554683235 -336021.2973450634 1441747.8632866086 -299345.0352271585 1576835.4605217662 Z"/>
<path data-iso="MX-TLA" data-country="MX" data-name="Tlaxcala" d="M -281817.63355863036 2340982.992011444 L -216292.45826433421 2328180.4943551645 -171366.2503259062 2373493.190831416 -228922.85220530664 2396776.975558516 Z"/>
<path data-iso="MX-VER" data-country="MX" data-name="Veracruz" d="M -18074.971731657755 2384074.654268453 L 153542.87456190152 2500998.0489985594 199349.31260109175 2495465.7785723167 257744.16225881944 2592513.152901819 116263.42923204336 2608329.274102496 81692.4050555766 2549099.1083872886 20677.26994874916 2565488.917615209 17821.381975485965 2506674.268371899 -23223.067508833385 2503050.99804034 -49015.06592424159 2457826.8759018583 -72533.14729283334 2447060.277621096 -74204.8460019316 2480552.980607093 -140519.13445658318 2446932.435376166 -103961.98565489709 2379631.7601602017 -150051.46953284374 2350093.172135411 -117274.80500044517 2284706.6665268764 -183395.7742368994 2275616.9524077587 -160500.93916089024 2245165.260655515 -191310.45838734228 2205537.1093867687 -205924.79668963767 2241314.100674038 -265624.9127064338 2257072.6618423816 -221984.26517051624 2178322.440219247 -262422.3262820317 2156667.8202507114 -237256.05512256845 2047963.2568113797 -271917.59480686684 2028839.693138221 -180953.0239546294 2046845.901740803 -122303.52537071041 2226366.63042643 Z"/>
<path data-iso="MX-YUC" data-country="MX" data-name="Yucatán" d="M 691503.0195485349 2315287.6322886115 L 623615.6447032293 2226833.722313461 583432.8163330134 2221673.1579381563 585330.4256673423 2171656.8323062435 806122.1510360647 2086633.9807568293 869899.2544605273 2096161.0079966276 856542.2951088541 2190727.647494568 Z"/>
<path data-iso="MX-ZAC" data-country="MX" data-name="Zacatecas" d="M -695657.0701754021 2053537.8487778062 L -683927.2047479652 2124708.8751871185 -759719.9671485107 2155051.237107336 -789854.1268192929 2095984.8360436654 -719051.892976076 2023633.3743147387 -740988.7863437351 2003224.3963420296 -784209.8317357162 2034047.3638009918 -784321.3768275212 1981816.8348498086 -801911.6478689138 2026120.0406988706 -801189.3914023116 1960626.3055600056 -815526.5430003663 2002749.1284159047 -849511.0606178641 1995705.4104573184 -785728.7684839955 1820062.1491110292 -736868.1180901863 1776054.189948829 -643777.6570505834 1783171.2989908557 -657486.4655086575 1709794.9869812697 -614571.1521274245 1706835.7623149664 -471110.21779933746 1789734.1379360144 -580547.0304316647 1898028.118528412 -633787.4813629278 1908961.368743254 -589677.9723666795 2007361.3157155826 -542442.9762727427 1983060.3705943995 -544734.3475179614 2063077.5786752608 -567351.2930206598 2082657.6619659308 -640429.8581400691 2005349.6852610114 Z"/>
<path data-iso="US-AK" data-country="US" data-name="Alaska" d="M -3542621.957270827 -4210072.552347127 L -3475847.5522491396 -4230441.763855248 -3422867.9143981175 -4153857.29121111 -3404090.3914256115 -4053246.3061659606 -3443159.001839916 -4035876.8359475117 -3498685.3516351376 -4063451.8893861375 Z M -3804082.9722169815 -4054029.747740105 L -3769878.38593178 -4052715.074041598 -3768617.222878412 -3958293.4287978522 -3830671.85312135 -3971317.4148289263 Z M -3985076.436035188 -3661167.7827287563 L -3932804.9978451757 -3665080.729733788 -3924513.885304115 -3621891.60268317 -3986569.283412352 -3622435.528111428 Z M -4004630.725670375 -3571030.455654872 L -3978901.156069345 -3602945.825142771 -3948103.1650244896 -3564481.3690587925 -3983303.5295333765 -3543072.2063573166 Z M -3279395.429811689 -4200210.809306065 L -3250918.264378062 -4182259.482628512 -3264129.484280269 -4154719.3776516616 -3296017.776268958 -4172401.0509167393 Z M -4503411.155388994 -3456216.8087447966 L -4478280.334124293 -3374200.9204783933 -4424649.152904168 -3366985.9091626937 -4430276.63313945 -3329166.57105863 -4523586.957615407 -3339902.2277550683 -4621417.730340656 -3444751.9849120295 -4863714.341468302 -3597086.9437508383 -4764487.543467059 -3645058.4246050194 Z M -3471250.3384632557 -3041211.1242012084 L -3460485.4893293018 -3011602.838214744 -3490855.8212205363 -2999709.2154936814 -3500450.477225963 -3028871.863369363 Z M -3414667.3316197535 -2942313.8856250327 L -3410574.3737318437 -2984420.447584676 -3363955.5993775227 -2980419.9008150846 -3376586.0660214326 -2936918.1712814774 Z M -2725081.308159781 -3022850.6822112016 L -2687790.2846483258 -3028413.3217194187 -2691884.2696593753 -2984200.545515212 -2732793.741813914 -2985913.090563765 Z M -3951254.282438828 -3209361.979128341 L -3886289.4323468255 -3241181.21255886 -3804833.3034323114 -3210332.4166895184 -3775440.165374717 -3236565.3202092857 -3609398.221945527 -3187334.028495601 -3398681.0894905576 -3213275.875253758 -3342231.230500162 -3256003.7112763803 -3337586.911307763 -3284583.985619248 -3395377.684888643 -3304391.9806420626 -3390199.295637367 -3348043.8499532957 -3505532.86068582 -3416122.2888409155 -3517784.7018126044 -3459458.3274270543 -3477383.9051390705 -3474929.9629596416 -3448763.910417318 -3556461.0593117946 -3518482.294874075 -3592008.4859507857 -3524615.260950367 -3675248.292443858 -3603375.7506778277 -3677717.3494634414 -3632736.586311944 -3765230.3099226234 -3601884.450970283 -3801594.8150224835 -3480136.6547694206 -3752252.6242411938 -3468653.1980075287 -3856569.2744114585 -3309429.4645334873 -3943265.571139098 -3235861.8030708744 -3925909.5089543303 -3210560.0439407304 -3879142.21544407 -3152865.7624044404 -3905428.7736383546 -3096426.738969264 -3855139.336316522 -3096719.4769845027 -3929548.5242022243 -3134816.106189638 -3932373.7222043714 -3153382.922839378 -3982060.9700297685 -3261947.6819263217 -4070183.888653182 -3233240.519153343 -4172633.314220262 -3272599.1655219086 -4248714.701471003 -3234043.2299782755 -4283390.573460263 -3224971.7519864943 -4254769.71558445 -3019019.806207397 -4197609.0413253 -2977894.5163536603 -4154761.044137234 -2990439.7557715955 -4109004.1627472388 -2963156.793994766 -4104449.295169324 -3008095.8418014836 -4408440.483678591 -2937580.699345426 -4428792.097603008 -2842643.5539941723 -4366521.912898836 -2702825.1532570743 -4405239.010964872 -2529460.8748453893 -4331664.840642824 -2444997.805517301 -4331474.490114509 -2292830.029014534 -4122928.35845447 -2173035.07222129 -4048881.892895107 -2079724.834907584 -3940878.302270113 -2007896.5522534598 -3916552.05915811 -1937951.4522662365 -3824295.1199504985 -2402274.230969833 -2945333.181356129 -2304506.5941960923 -2902071.2782677854 -2323605.404925887 -2878710.8296431727 -2295687.679546615 -2718684.7664627247 -2234789.2626910848 -2722640.1018832787 -2202381.748465549 -2761390.5051453076 -2140907.912436101 -2745655.5286352313 -2099652.413861727 -2573448.6828963896 -2094073.070002145 -2346622.6820478113 -2016605.077320392 -2258224.8830270367 -2043152.567621718 -2165015.9657341167 -2108274.671357311 -2112195.1908369223 -2286575.438782126 -2174038.38008321 -2264846.9657797064 -2297675.951275441 -2300970.0312662725 -2326725.6295941845 -2305901.5922244643 -2618810.4425314646 -2346043.604077674 -2739053.7953956383 -2490913.1023875913 -2935070.0693688253 -2623356.9770852444 -2971264.3898754646 -2606291.5133045805 -3016618.045652958 -2652012.99945795 -3065589.6671152837 -2744410.10811481 -3053172.1662988034 -2820375.087689633 -3109240.324967849 -2864093.956556675 -3086163.576772987 -2994177.6417600717 -3110654.247973509 -3114810.2953646528 -2969050.200632071 -3259785.5879034945 -2942203.5112602254 -3322620.055083956 -2964395.045502104 -3270695.8338207267 -3082523.680629471 -3214677.42671894 -3111464.6019378337 -3386234.6129257963 -3067373.7528504133 -3428205.873942271 -2991199.8394077434 -3455837.9034284647 -3009990.4927995675 -3441265.3950687703 -3067970.6956691756 -3586471.7756024473 -3066675.651000267 -3612439.477667684 -2994079.9646886676 -3659720.6745353327 -2984667.509538904 -3717181.7141414206 -3086422.5138728893 -3844399.4197705104 -3065105.415638604 -3856037.3846104555 -3128617.249964452 -3894542.922629879 -3156144.517572493 -4107262.517714235 -3165531.586689043 -4281822.831706846 -3220234.287974813 -4412018.534033283 -3309593.3817118504 -4381749.709411402 -3335481.99775796 -4261024.294606614 -3311982.310558223 -4238883.684232933 -3266835.007029181 -4142000.768118083 -3276910.8568916176 -4114069.463727322 -3307875.8107950306 -4119194.068054704 -3239061.8624883066 -4076612.921834885 -3264571.4289012062 ZM -2951841.0804312527 -3231372.977163719 L -3025342.3511031754 -3208632.418283436 -3064626.1444918397 -3139802.1815466606 Z"/>
<path data-iso="US-AL" data-country="US" data-name="Alabama" d="M 997164.0159427149 848463.1748287937 L 1003896.8912464771 994794.2428276007 767634.870247243 1019426.1681004813 782911.4813837928 1107288.5518833124 703581.5623467808 1122058.4898970046 674213.7365688316 558938.7078653924 898359.3685334412 540119.3146797724 Z"/>
<path data-iso="US-AR" data-country="US" data-name="Arkansas" d="M 117096.20636706389 411088.65509770013 L 495153.9733820278 396846.58058621094 479555.49217555183 456803.29139347334 542712.6282487002 463539.6542423019 431289.2041419092 696176.1029749104 430211.3725567017 809557.3150322661 174196.15756073187 816986.0739566217 172883.4703604448 754917.9179643167 133629.95268319198 745657.1927109757 Z"/>
<path data-iso="US-AZ" data-country="US" data-name="Arizona" d="M -1335599.3274358027 910638.9042160538 L -1676104.3120126806 712510.8164461777 -1637618.2860207171 679101.032302088 -1650088.3898846984 622151.7958393203 -1618569.696233952 552953.6647583354 -1576574.9825341927 522666.1991837245 -1605865.1791708542 444006.7247263754 -1588456.7553353733 303407.99927722226 -1537564.6931317877 318242.6036479102 -1508956.6728970145 209118.6567874339 -1093722.9098760777 277932.0752273255 -1184887.4595650225 933002.639695832 Z"/>
<path data-iso="US-CA" data-country="US" data-name="California" d="M -1576260.1883606003 517656.5090051401 L -1647255.5407580975 610652.4440326677 -1649948.5223281584 689613.0641356315 -1884535.318049697 664097.5111047913 -1887769.1762658881 586013.2180983723 -1962476.179893783 471315.1748016097 -2127305.4444440803 364375.30012541806 -2110519.606830073 299669.4638675183 -2177742.2514630207 141475.48779019093 -2181316.4900232507 -47509.01286745898 -2239157.4567365944 -200094.43426290393 -2217937.9882186544 -302872.7109031746 -2240006.2099071927 -389595.1918546156 -2173856.3947574184 -563182.8938423867 -1849535.1443378443 -470908.9326175055 -1938512.347998781 -129265.04913126625 Z M -2037227.7965440887 443541.48803347844 L -2099634.575945928 454425.4020454548 -2131257.1586455377 414033.9047097922 Z"/>
<path data-iso="US-CO" data-country="US" data-name="Colorado" d="M -478545.55213354446 -133577.24048769876 L -507881.7721166085 337807.6649561997 -1093722.9098760777 277932.0752273255 -1029437.4548911521 -189069.5849344352 Z"/>
<path data-iso="US-CT" data-country="US" data-name="Connecticut" d="M 1880225.4727709796 -416998.7618688446 L 1743561.2682523357 -335673.38989986683 1735666.6222080013 -449051.7482558569 1863745.5117334845 -478090.70751518384 Z"/>
<path data-iso="US-DE" data-country="US" data-name="Delaware" d="M 1635916.0936105228 -158222.1672586299 L 1715486.9027948077 -8406.094784890456 1658336.6487474984 3189.5057235973927 Z"/>
<path data-iso="US-FL" data-country="US" data-name="Florida" d="M 1540304.093808218 1405358.9148988598 L 1557072.0447582153 1543465.7204356322 1512915.8241210242 1635940.89952078 1392595.1592638989 1705009.142281521 1358153.738699263 1673954.485691891 1458827.6030938565 1629828.248737344 1250218.172171212 1371795.7016644285 1222828.4904134313 1203985.036878155 1104443.1673177176 1106263.6712707246 1019196.0404300325 1175073.247559571 894663.243366788 1099017.8785055429 783991.7017014562 1119385.9725853736 767634.870247243 1019426.1681004813 1003962.5696882341 994788.919211285 1020334.576852662 1026542.4378334034 1263995.382633133 1011017.233890429 1272371.6230086682 1034453.8249649192 1283681.1816831217 977769.591558587 1340376.8679210066 982648.466826185 Z"/>
<path data-iso="US-GA" data-country="US" data-name="Georgia" d="M 1340376.8679210066 982648.466826185 L 1283681.1816831217 977769.591558587 1281191.742631629 1033336.6421319923 1263995.382633133 1011017.233890429 1015335.9201708967 1022542.831688023 980102.6371322806 899736.9623022061 997164.0159427149 848463.1748287937 898359.3685334412 540119.3146797724 1113167.481685443 512081.3034257045 1097629.3928670315 551624.7052009562 1286599.9119318102 721319.943397807 1336192.622584264 818992.2338882195 1369882.5489230098 822967.222676105 Z"/>
<path data-iso="US-HI" data-country="US" data-name="Hawaii" d="M -5845360.338003313 244934.37802735163 L -5814373.484153677 318596.8978125831 -5894258.28283104 296456.5401481494 -5864379.352103399 286370.2248285076 Z M -6745937.853396362 -1588393.1761032282 L -6762195.332996103 -1610931.3919753507 -6725630.11911383 -1612919.180787399 Z M -5846828.921405732 236544.5004407685 L -5871898.320997058 237981.0078731274 -5908929.911444467 196094.09914852568 Z M -5804621.582372948 504527.434328754 L -5911664.447839579 501472.7833657679 -5926404.158760539 471942.88063490234 -5895942.3242496755 395875.23939563707 -5841370.216553715 357302.1041893815 Z M -5928213.306160922 166339.99742437844 L -5962474.7596564535 135470.53054789038 -5956411.842908444 92187.41057162422 -5914360.247227772 99217.41674200169 Z M -6029666.228857786 1737.7223529611729 L -6047271.014935962 -42177.979726599726 -5993126.688117725 -36790.31353288 Z"/>
<path data-iso="US-IA" data-country="US" data-name="Iowa" d="M 363385.62110405264 -422639.498782069 L 379613.78862874495 -334751.47055292217 456107.8609776751 -250618.33330197367 443033.59430466656 -200714.9756121477 389308.3049962678 -177093.37390381683 368821.7976853097 -54719.98639864688 339903.14120805025 -80065.4588811865 18635.99429897786 -69092.5689969377 -49237.07794508587 -323355.8167639295 -45566.78959470937 -413595.5334905423 Z"/>
<path data-iso="US-ID" data-country="US" data-name="Idaho" d="M -1624302.7163191242 -417039.04362086253 L -1558383.412240836 -664081.2078563903 -1577809.228041557 -696903.1004721082 -1490082.9005140143 -824377.1737154073 -1513734.2913244502 -919329.7533426642 -1442939.130920207 -1223199.3245696593 -1376484.8104660008 -1208768.9486316305 -1395311.465074907 -1022842.8989909659 -1312778.401583882 -913270.8937039557 -1354954.5444952403 -789697.3947458247 -1306521.760046673 -796701.1967741746 -1256528.505146948 -627005.9544867037 -1150695.702530494 -630297.8477052992 -1140437.5693278108 -654484.4560664924 -1121220.2540328442 -617992.6022150837 -1167028.7934014099 -329137.4446811945 Z"/>
<path data-iso="US-IL" data-country="US" data-name="Illinois" d="M 389308.3049962678 -177093.37390381683 L 456009.2654220705 -240149.86671501002 413791.7390762772 -307852.0224886473 692883.8911855754 -327288.51280548045 686447.9680166845 -239747.01136107903 661884.5599849985 -237431.59931394798 695944.7979892517 117202.2963505846 630696.9263222506 320565.11749927053 589018.7820463736 304292.41796864686 555951.2289253597 328940.2324816071 539450.4771921785 253561.2968303716 465468.4908433065 194951.42035325666 481509.9455463668 120744.38481810233 439142.3816925853 118348.75285758788 373741.56529818266 22813.917558373112 359768.42895052856 -36706.77357097106 Z"/>
<path data-iso="US-IN" data-country="US" data-name="Indiana" d="M 913878.3874306561 89278.32395776012 L 864031.8136381921 101684.69927013053 824345.4579251594 197081.4445656789 795005.6712688091 172030.54252176615 776324.4054972909 215769.56249014274 657710.3632046131 231091.83463300287 695944.7979892517 117202.2963505846 661884.5599849985 -237431.59931394798 873206.1925678166 -259419.40579077942 Z"/>
<path data-iso="US-KS" data-country="US" data-name="Kansas" d="M -506825.14932880655 321508.44569565594 L -486085.02893182257 -15901.608072807752 90371.24236509688 19927.313922384496 71767.04091458686 52491.82226029739 114967.93948339568 99387.66190978968 116235.57159068418 352502.24793725513 Z"/>
<path data-iso="US-KY" data-country="US" data-name="Kentucky" d="M 1166562.1980670223 203494.65835880445 L 1038712.3079232578 334661.0602051362 557196.4820886715 392646.9763239477 579525.5155663433 312590.33862347825 632772.9967479225 319260.1109595151 670810.044648802 215735.35215893277 776324.4054972909 215769.56249014274 795005.6712688091 172030.54252176615 824345.4579251594 197081.4445656789 864031.8136381921 101684.69927013053 913934.9552394096 89188.29356876644 913935.4287012396 46223.80604465631 1009395.95768678 96155.63144212826 1070963.0247616342 72537.3215661186 Z"/>
<path data-iso="US-LA" data-country="US" data-name="Louisiana" d="M 662298.4344118747 1131896.734748596 L 639943.9071936382 1211271.4405324515 663342.350963144 1244058.525010692 618327.3731337079 1279170.413098313 598603.4686860625 1240780.0510106971 476957.72036416817 1272003.4762982905 365715.3092379584 1215135.306587636 203917.56018092443 1213018.7688969623 227879.54107578134 1046483.0257681229 176727.4192861715 936209.8051904541 174196.15756073187 816986.0739566217 436457.38823855616 811319.0087786497 458017.3617738112 887189.4343235584 398987.71990107774 1044076.3311860118 573114.3860198639 1033680.0695429135 593155.2844361898 1127069.1815711993 Z"/>
<path data-iso="US-MA" data-country="US" data-name="Massachusetts" d="M 1895615.1667758923 -485288.32809665817 L 1734932.1306157496 -448884.07271273213 1732946.2698467528 -533073.6404674342 1917546.1275227265 -596649.127994266 1948100.075850772 -516775.96102609474 1991948.4365669054 -522757.1813956922 2016368.4438608934 -491967.48700318235 2018634.2487047447 -456208.3389849464 1980282.1644338835 -442948.57351451705 2031011.4225102013 -424731.6603964077 1959345.674247458 -404232.4875607792 Z"/>
<path data-iso="US-MD" data-country="US" data-name="Maryland" d="M 1336830.0516847821 -23092.716423373637 L 1327118.1787315102 -83060.0244195911 1619234.4924316497 -140505.28935129684 1658336.6487474984 3189.5057235973927 1715486.9027948077 -8406.094784890456 1711797.2679419518 43498.12824968545 1628619.6279766061 78597.24756105745 1533798.100564134 44075.756676595825 1550249.8765082525 -26109.268690187233 1459846.5314486164 -93760.9543480738 Z"/>
<path data-iso="US-ME" data-country="US" data-name="Maine" d="M 1989396.4629328211 -1133030.9117894627 L 2034986.7686251036 -977398.2121932223 2132373.5636135163 -896423.31733427 2011007.4821267833 -756252.515907443 2029610.1347676446 -734161.6881430772 1939600.9195942923 -682333.5629446043 1928790.4209694874 -605467.7945888947 1882765.800160756 -650175.9383174995 1816892.5061610357 -866946.1407364553 1846441.3961642599 -884514.6045538302 1878121.324394302 -1148153.2184850886 1909641.9028478572 -1122695.1010742607 Z"/>
<path data-iso="US-MI" data-country="US" data-name="Michigan" d="M 981447.7175722785 -269920.147932676 L 686447.9680166845 -239747.01136107903 675068.003425604 -520121.46903283696 718841.0464982211 -655602.6311128273 653947.5131658671 -673906.6971090536 616487.1011977368 -630540.1913203223 575852.4717483021 -723577.242812905 404648.9157064276 -783835.9442835848 458381.14243052504 -962197.4781467839 533780.7360430271 -1002371.7583480087 797947.5475130802 -860726.6455663232 825654.0766552547 -813149.441664699 855337.1347783697 -825108.4395613591 874861.5860949501 -771197.2170833617 901805.1583938499 -780533.1020378168 904369.1618993285 -746978.6652823106 990585.3413781102 -701269.7859958846 1049588.3269857622 -501146.10701528605 Z"/>
<path data-iso="US-MN" data-country="US" data-name="Minnesota" d="M -34459.35165754804 -413535.47873516625 L -85766.48909249461 -1059438.9802711892 58574.627150496905 -1062694.0213692025 58156.20081107051 -1108039.2712044201 94417.08983878585 -1032792.4286257967 153946.169566675 -1007429.9258940578 211996.78824787444 -1022612.1924714282 311750.1452281196 -957268.3202759952 358371.76090700505 -983466.415531562 458381.14243052504 -962197.4781467839 430533.72782884963 -874967.0856590965 380237.98887315445 -873291.3268413476 267165.8926422353 -792937.476539844 269760.6495963117 -722900.4425172327 229285.59024334923 -679114.4002262738 237738.6925204006 -565178.2359084983 344250.35202944436 -480428.08239906846 363385.62110405264 -422639.498782069 Z"/>
<path data-iso="US-MO" data-country="US" data-name="Missouri" d="M 114900.22931504573 99067.29815879153 L 18160.295178881257 -68495.97293409763 339903.14120805025 -80065.4588811865 436071.3392923143 114495.79404545188 481577.97179075994 120862.43787524766 465468.4908433065 194951.42035325666 539593.9025769972 253790.7160977821 573812.4040122275 381933.73310563964 544388.0922455867 385326.85665488854 536666.466053718 452591.8149924316 479555.49217555183 456803.29139347334 495153.9733820278 396846.58058621094 117096.20636706389 411088.65509770013 Z"/>
<path data-iso="US-MS" data-country="US" data-name="Mississippi" d="M 617003.3952659469 1126439.7138709964 L 569872.5628285081 1086640.8539096708 573114.3860198639 1033680.0695429135 398987.71990107774 1044076.3311860118 458017.3617738112 887189.4343235584 420659.03055132704 731502.2859763241 492425.1651749744 573353.1335666996 674588.4285426055 560380.0052343187 703581.5623467808 1122058.4898970046 Z"/>
<path data-iso="US-MT" data-country="US" data-name="Montana" d="M -1118488.7465231814 -635362.9154595488 L -1140437.5693278108 -654484.4560664924 -1150695.702530494 -630297.8477052992 -1256528.505146948 -627005.9544867037 -1306521.760046673 -796701.1967741746 -1354954.5444952403 -789697.3947458247 -1312648.6627891567 -912481.2492147299 -1395311.465074907 -1022842.8989909659 -1376484.8104660008 -1208768.9486316305 -556067.7814995795 -1086172.0195533785 -595436.1257182525 -615724.6031934569 -1111569.1492057734 -679258.3494137565 Z"/>
<path data-iso="US-NC" data-country="US" data-name="North Carolina" d="M 1697452.0293174074 224349.52004064384 L 1755336.1521205422 330767.22025694983 1757445.988063256 375104.16398068226 1686225.7425149675 468070.15760893805 1604162.230077326 502930.89822322055 1581459.8897418112 582123.7195751407 1527579.6967182853 580749.6259508114 1410191.6847179146 488715.23805767176 1313938.595468349 503121.8577089995 1287589.5383140151 468326.41735901084 1008684.4912158295 526767.4799812094 1038739.8994421032 460382.46130420954 1185529.749523104 368908.4479903531 1207298.5993519316 310162.7042579198 Z"/>
<path data-iso="US-ND" data-country="US" data-name="North Dakota" d="M -586386.7084395606 -727278.3753821033 L -556067.7814995795 -1086172.0195533785 -84995.4933280371 -1063171.5507830516 -40927.01196972816 -701588.5439923179 Z"/>
<path data-iso="US-NE" data-country="US" data-name="Nebraska" d="M -636501.9344724579 -145269.65112565676 L -616456.7387390622 -380657.3831306738 -101173.60545109354 -339541.3069124896 -29868.76577976639 -292425.03260726767 9112.669827482367 -85097.45733735226 55617.69995015999 -202.9923047518447 -486085.02893182257 -15901.608072807752 -478545.55213354446 -133577.24048769876 Z"/>
<path data-iso="US-NH" data-country="US" data-name="New Hampshire" d="M 1928790.4209694874 -605467.7945888947 L 1881310.0980467787 -565061.9792758992 1785170.5503891727 -553557.5646742905 1802732.0936585017 -862771.4287106891 Z"/>
<path data-iso="US-NJ" data-country="US" data-name="New Jersey" d="M 1757012.3289499588 -173706.59597416644 L 1704175.3611997494 -46881.0757228415 1643030.0067326846 -116828.3850737759 1692055.01328734 -208383.42526409595 1644060.168446532 -249285.49842097153 1638360.5421478043 -297949.5387805935 1662350.3546818697 -347836.4302791033 1733642.2178501121 -320741.8032309699 Z"/>
<path data-iso="US-NM" data-country="US" data-name="New Mexico" d="M -1093561.1797041052 277956.1425286756 L -588404.6396822121 331432.92046799895 -637104.8729807453 913469.0034477101 -956492.6993298505 883551.6917003774 -951168.022444384 909471.7303118394 -1102196.7262542476 891295.092162186 -1108899.672783669 943068.4421711479 -1184887.4595650225 933002.639695832 Z"/>
<path data-iso="US-NV" data-country="US" data-name="Nevada" d="M -1938512.347998781 -129265.04913126625 L -1849535.1443378443 -470908.9326175055 -1396889.2104388932 -368718.0988149853 -1526531.1917766905 301889.301532438 -1588070.285751121 302491.7430148949 -1602797.0434461394 429382.46669576486 Z"/>
<path data-iso="US-NY" data-country="US" data-name="New York" d="M 1889522.834037396 -382344.1256048161 L 1811739.5982883056 -294403.40748994524 1722083.3063681356 -254881.5335477573 1733642.2178501121 -320741.8032309699 1637143.3168345164 -356971.16314819775 1594995.7504188488 -410401.8418054951 1258618.7811991582 -344054.8004733246 1248195.3562395424 -404285.3528806882 1305149.2224094567 -460513.5804483028 1271419.4925646686 -520502.61560188496 1446726.5013144494 -575940.7214978625 1545516.2449855632 -759986.5466464303 1663718.947288606 -791732.7736990588 1732946.2698467528 -533073.6404674342 1743561.2682523357 -335673.38989986683 Z"/>
<path data-iso="US-OH" data-country="US" data-name="Ohio" d="M 1103952.4592540534 109749.36477688 L 1070614.1541872355 72460.03472861602 1009395.95768678 96155.63144212826 908975.4546729221 51807.39781086429 874090.5581222199 -251900.3822815786 981447.7175722785 -269920.147932676 1001346.6842662677 -299499.0352882933 1061313.282439416 -274195.64025949774 1194043.3341003314 -372197.7976715221 1219574.821543874 -63233.162199701124 Z"/>
<path data-iso="US-OK" data-country="US" data-name="Oklahoma" d="M -164663.93763410984 720276.8680989911 L -185294.47910557597 684295.5686741194 -322849.2176437711 654014.0118695244 -348411.2965028174 631655.7666998106 -338831.1987990223 404740.0491521304 -592732.5302781576 389938.34204118414 -588404.6396822121 331432.92046799895 116235.57159068418 352502.24793725513 133629.95268319198 745657.1927109757 68552.33747879489 708479.2219710406 Z"/>
<path data-iso="US-OR" data-country="US" data-name="Oregon" d="M -2176219.708910819 -567731.5055705426 L -2174792.829908136 -657923.9947401494 -2097618.0968465162 -781528.7910846777 -2014007.1016217507 -1039660.8781221091 -1944103.4369164759 -1010851.478610595 -1907351.6008781858 -921200.8681263588 -1659450.1332987575 -911013.8749014025 -1512598.7163679197 -875840.4209388332 -1492548.352557475 -842008.3427838252 -1577809.228041557 -696903.1004721082 -1558383.412240836 -664081.2078563903 -1624302.7163191242 -417039.04362086253 Z"/>
<path data-iso="US-PA" data-country="US" data-name="Pennsylvania" d="M 1194043.3341003314 -372197.7976715221 L 1248195.3562395424 -404285.3528806882 1258618.7811991582 -344054.8004733246 1594995.7504188488 -410401.8418054951 1662529.710405799 -348891.4565283474 1640427.0278078509 -262282.759355678 1691986.5336197077 -208018.45759102062 1620402.8772602095 -140758.45340981235 1244166.0043243119 -68937.27005259856 Z"/>
<path data-iso="US-PR" data-country="US" data-name="Puerto Rico" d="M 2981705.971623003 2065282.9319029725 L 2961723.486521138 2089468.6631846614 2934802.960244477 2065349.731849668 Z M 3227345.426997429 1947469.2689019765 L 3237347.873454596 1990471.6395841804 3110831.5023966343 2062877.3364313983 3032799.2076648325 2079494.1990491936 2975790.4117511525 2031550.3006958433 3021748.276577572 1983499.3044562617 Z"/>
<path data-iso="US-RI" data-country="US" data-name="Rhode Island" d="M 1864318.5245154516 -476352.33984261315 L 1895457.857204508 -485882.0966870945 1935512.010044356 -424736.36251486844 1889522.834037396 -382344.1256048161 Z"/>
<path data-iso="US-SC" data-country="US" data-name="South Carolina" d="M 1333776.6157956005 813185.7710783638 L 1286599.9119318102 721319.943397807 1097629.3928670315 551624.7052009562 1112623.5007316452 511719.04819313315 1277799.4467098643 469078.62125225127 1313938.595468349 503121.8577089995 1410191.6847179146 488715.23805767176 1527579.6967182853 580749.6259508114 1369882.5489230098 822967.222676105 Z"/>
<path data-iso="US-SD" data-country="US" data-name="South Dakota" d="M -40969.76903504329 -701316.6169105102 L -62941.73652407812 -662583.8725292125 -33425.89575139899 -626305.0597638219 -34017.91256785685 -294112.56568889826 -191476.1154953236 -356660.43541624345 -616456.7387390622 -380657.3831306738 -586386.7084395606 -727278.3753821033 Z"/>
<path data-iso="US-TN" data-country="US" data-name="Tennessee" d="M 492278.0549508293 572349.9240474378 L 546976.6840958172 393479.9092152354 1209411.1276720983 307044.924699993 1185529.749523104 368908.4479903531 1038739.8994421032 460382.46130420954 1008684.4912158295 526767.4799812094 Z"/>
<path data-iso="US-TX" data-country="US" data-name="Texas" d="M 201359.48416164273 1202434.921278856 L -78459.06274802928 1413363.7877290174 -116215.79452223112 1499885.7342154386 -95554.56433414742 1629815.3895299917 -139207.2596072007 1644091.5537646736 -299345.0352271585 1576835.4605217662 -336021.2973450634 1441747.8632866086 -502059.71574920334 1180740.173344037 -620358.0976206234 1176363.0846105004 -671527.453192306 1261830.6527589895 -761714.3734429473 1206213.9555390936 -819426.3246895723 1060424.750592173 -958637.8867187924 885579.6943027781 -637104.8729807453 913469.0034477101 -596046.5087728 389683.09624018846 -338831.1987990223 404740.0491521304 -348411.2965028174 631655.7666998106 -322849.2176437711 654014.0118695244 -99996.80287404104 736687.8276103333 -86154.67358881522 709145.9338453673 -30642.78665814998 740965.6380365277 68552.33747879489 708479.2219710406 170816.76226884147 751648.0052671811 176720.6980137086 936180.3496733896 227879.54107578134 1046483.0257681229 Z"/>
<path data-iso="US-UT" data-country="US" data-name="Utah" d="M -1508956.6728970145 209118.6567874339 L -1396889.2104388932 -368718.0988149853 -1167028.7934014099 -329137.4446811945 -1185768.0259433526 -212070.50200688114 -1029437.4548911521 -189069.5849344352 -1093722.9098760777 277932.0752273255 Z"/>
<path data-iso="US-VA" data-country="US" data-name="Virginia" d="M 1527236.8621973617 28331.139583509645 L 1628619.6279766061 78597.24756105745 1711797.2679419518 43498.12824968545 1677590.1409254507 168008.37871016297 1697452.0293174074 224349.52004064384 1039723.288157877 332376.0256821556 1166562.1980670223 203494.65835880445 1196405.795389575 238977.0629033984 1303911.7976942249 185938.29949972683 1336252.3900121294 50482.22112531466 1369456.9501487783 65366.006798034745 1422403.5925764644 -69848.94111209095 1537408.1767733812 -24299.202123132 Z"/>
<path data-iso="US-VT" data-country="US" data-name="Vermont" d="M 1666617.3295594016 -781108.200061589 L 1798548.0040419376 -826349.4430209682 1774866.1325630618 -644369.5277793204 1793715.3724965795 -545906.7592302072 1732101.6205924756 -532885.1566315022 Z"/>
<path data-iso="US-WA" data-country="US" data-name="Washington" d="M -1442939.130920207 -1223199.3245696593 L -1512598.7163679197 -875840.4209388332 -1907351.6008781858 -921200.8681263588 -1944103.4369164759 -1010851.478610595 -2014007.1016217507 -1039660.8781221091 -1974605.2316059768 -1304443.4153980792 -1904511.993473637 -1249892.488921367 -1850730.1032033535 -1300600.5562322612 -1863775.314090342 -1333267.1461622044 Z"/>
<path data-iso="US-WI" data-country="US" data-name="Wisconsin" d="M 688543.2264339243 -597558.2371400391 L 692883.8911855754 -327288.51280548045 413791.7390762772 -307852.0224886473 372525.6481729692 -352734.73663506587 349554.618678249 -473660.4311599793 237738.6925204006 -565178.2359084983 229285.59024334923 -679114.4002262738 269760.6495963117 -722900.4425172327 267165.8926422353 -792937.476539844 380237.98887315445 -873291.3268413476 430533.72782884963 -874967.0856590965 404765.63441447756 -783700.3519221077 575852.4717483021 -723577.242812905 616487.1011977368 -630540.1913203223 653947.5131658671 -673906.6971090536 718841.0464982211 -655602.6311128273 Z"/>
<path data-iso="US-WV" data-country="US" data-name="West Virginia" d="M 1460344.1633800135 -93358.41182201232 L 1471205.7518391963 -39133.54809522084 1422403.5925764644 -69848.94111209095 1369456.9501487783 65366.006798034745 1336252.3900121294 50482.22112531466 1304593.008509809 185181.94328591085 1180366.5011814968 231167.40991290534 1100104.5443021632 108553.29091636061 1217330.5216913985 -52681.4799274577 1218010.1607861686 -171706.29605965703 1244166.0043243119 -68937.27005259856 1327118.1787315102 -83060.0244195911 1336830.0516847821 -23092.716423373637 Z"/>
<path data-iso="US-WY" data-country="US" data-name="Wyoming" d="M -636501.9344724579 -145269.65112565676 L -1185768.0259433526 -212070.50200688114 -1111569.1492057734 -679258.3494137565 -596774.8617062101 -615787.0199185993 Z"/>
</svg>
