<svg xmlns="http://www.w3.org/2000/svg"
  viewBox="-170 -85 115 72"
  role="img" aria-label="Coverage map of North America"
  preserveAspectRatio="xMidYMid meet">
<style>
  path { fill: var(--covered-fill, #4fd1a3); stroke: var(--covered-stroke, rgba(0,0,0,0.35)); stroke-width: 0.1; }
</style>
<path data-iso="CA-AB" data-country="CA" data-name="Alberta" d="M -114.8670412 -50.3983829 L -116.6603033 -51.8048316 -116.9207819 -51.7093599 -117.991934 -52.5000492 -118.2232243 -52.3766803 -118.7926541 -53.1615363 -119.9011788 -53.5166102 -119.7164435 -53.6123184 -120.0012733 -53.7987116 -120.0013586 -60.0004699 -110.006368 -59.9996139 -110.005056 -48.9996249 -114.0682072 -48.9988717 -114.7533325 -49.6099208 -114.652145 -49.993484 Z"/>
<path data-iso="CA-BC" data-country="CA" data-name="British Columbia" d="M -130.9281978 -52.2407001 L -130.9500942 -51.8776983 -132.5959149 -53.0250718 -133.1970029 -53.7865542 -133.1354808 -54.272009 -132.0239173 -54.0706639 -131.5946813 -54.2287686 -131.8685935 -53.517178 Z M -123.3222397 -49.0020717 L -123.0085 -48.7671111 -123.2678889 -48.694 -123.2484444 -48.2840278 -123.5412222 -48.2245556 -124.72725 -48.4934444 -126.5940264 -49.3438882 -127.9710764 -50.0868734 -128.5015678 -50.7905668 -129.1488993 -50.8497048 -127.8162328 -51.0485085 -128.6353987 -52.2 -129.5030873 -52.5034341 -129.4514454 -52.9079087 -130.7228791 -53.4649585 -130.4850888 -53.7119179 -130.8134998 -53.8494086 -131.2296362 -54.5820968 -130.5934109 -54.6676987 -129.9741673 -55.2819188 -130.103798 -56.1227981 -131.835327 -56.5992028 -133.377303 -58.4305483 -134.9599053 -59.2809264 -135.2336683 -59.6961431 -136.346389 -59.600556 -136.584444 -59.1658544 -137.526114 -58.9063722 -137.607356 -59.2438033 -139.0613278 -59.9996374 -120.0013586 -60.0004699 -120.0012733 -53.7987116 -119.7164435 -53.6123184 -119.9011788 -53.5166102 -118.7926541 -53.1615363 -118.2232243 -52.3766803 -117.991934 -52.5000492 -117.7218868 -52.3898268 -117.8145866 -52.2228298 -117.317115 -52.1873861 -116.9207819 -51.7093599 -116.6603033 -51.8048316 -115.6422528 -50.8400985 -115.016558 -50.5829564 -114.6629755 -50.0656564 -114.7329734 -49.5751164 -114.0541379 -49.0261731 Z"/>
<path data-iso="CA-MB" data-country="CA" data-name="Manitoba" d="M -101.361989 -48.9994722 L -102.004039 -55.8093815 -102.0075681 -59.9994439 -94.8261809 -59.9994213 -94.6618811 -59.351329 -94.857 -59.06825 -94.4654557 -58.724588 -93.1667447 -58.7249717 -92.42666 -57.3632299 -92.6872366 -56.9859069 -90.8863701 -57.2656101 -88.9865273 -56.849167 -95.1536713 -52.8415679 -95.1531944 -48.9988611 Z"/>
<path data-iso="CA-NB" data-country="CA" data-name="New Brunswick / Nouveau-Brunswick" d="M -68.1459154 -47.3045909 L -69.0534663 -47.2971796 -68.3834933 -47.5531985 -68.3823342 -47.9161169 -68.1226045 -47.999843 -67.3741962 -47.8439573 -66.3920415 -48.0892456 -65.5361394 -47.8286068 -64.2737962 -48.2206848 -63.625121 -48.0000632 -63.328871 -47.6024791 -64.5464194 -46.8727701 -64.3816245 -46.4126746 -63.5748248 -46.1008149 -64.1593473 -45.9753964 -65.0315832 -45.2281504 -65.937983 -44.9566588 -66.8262989 -44.2844277 -67.3012314 -44.3596866 -66.8854174 -44.7941927 -67.4292644 -45.1934861 -67.4500178 -45.6024786 -67.8181093 -45.6937492 -67.7901984 -47.0672248 Z"/>
<path data-iso="CA-NL" data-country="CA" data-name="Newfoundland and Labrador" d="M -66.6672818 -54.7110481 L -66.8078429 -55.356744 -65.6931728 -54.708164 -65.0858147 -54.9695628 -64.7696721 -54.7300956 -63.7126254 -54.6249508 -63.9240093 -54.7784074 -63.4028344 -55.2490065 -63.6794751 -55.2668869 -63.3197869 -55.4118063 -63.7926828 -55.4672386 -63.6436901 -55.6415794 -63.8544417 -55.9100124 -63.4435451 -56.0295164 -64.0346669 -56.0701446 -63.8629333 -56.2125891 -64.1779849 -56.4252436 -63.8742302 -56.4419604 -64.1453144 -56.6997548 -63.8591562 -56.86874 -63.5967704 -57.7412477 -64.0720013 -57.7700203 -64.4353949 -58.0983753 -63.8078501 -58.4897461 -64.0472222 -58.7026285 -63.4675041 -58.7620471 -64.8891115 -58.9383822 -64.2617912 -59.0129566 -64.5435363 -59.3104351 -64.3240693 -59.5127741 -64.9394392 -59.567046 -64.6267982 -59.9302946 -64.9236433 -60.0614651 -64.5937159 -60.1170313 -64.8537778 -60.2694115 -63.9891026 -60.4582117 -62.3355 -58.6813906 -60.981741 -57.667962 -60.9354249 -57.2514882 -59.2128864 -55.5462646 -56.6675494 -54.881493 -56.4772676 -54.3188568 -55.3070295 -53.5227273 -55.4219363 -52.7134304 -54.9520074 -52.0061086 -55.3354681 -51.1479142 -55.138799 -50.7870091 -55.3395047 -50.2638212 -53.8075379 -49.9556907 -53.0860939 -49.2632411 -52.3257744 -47.5464978 -52.6757116 -46.7167201 -53.5472252 -46.4103186 -55.9079863 -46.643418 -56.255 -47.3052778 -56.5419805 -47.3854414 -56.9742688 -47.1749277 -58.2426637 -47.437989 -59.2160487 -47.3597603 -60.4037537 -47.7610742 -60.4768198 -48.7813802 -57.3040495 -51.138839 -57.1074889 -52.0000758 -63.8056199 -52.0000707 -63.6423254 -52.0407904 -63.7442058 -52.315588 -64.0963558 -52.4734166 -63.3781099 -52.6605524 -63.6106219 -52.8856187 -64.1482982 -52.7292601 -64.2786427 -51.7385697 -64.5542572 -51.5773456 -65.3497278 -51.8223074 -65.4864828 -52.1099812 -65.9882178 -52.0564754 -66.2620853 -52.3104615 -66.3694719 -52.1451123 -66.3647682 -53.0213319 -66.7622622 -52.6671212 -67.3418573 -52.896214 -67.3718435 -53.1025803 -66.9895314 -53.0843568 -66.8900909 -53.4130615 -67.8216853 -54.0257023 -67.6156181 -54.1957555 -67.7669648 -54.4368141 -67.0715285 -54.6737063 -67.4706345 -55.0490116 Z M -52.8702856 -49.7566001 L -53.1868798 -49.55418 -53.4995881 -49.7582403 -53.1870383 -49.9588084 Z"/>
<path data-iso="CA-NS" data-country="CA" data-name="Nova Scotia" d="M -59.4473645 -44.1938837 L -59.3855231 -43.9708617 -59.86733 -43.7273684 -60.4251448 -43.9079425 -60.3133778 -44.1461208 Z M -59.2887119 -47.3733812 L -60.0488066 -46.9597461 -59.9123732 -46.4293729 -59.5390999 -46.300651 -59.4003932 -45.9543534 -60.8010786 -45.0882366 -63.9950794 -44.1468761 -65.5087465 -43.2052135 -66.2910265 -43.3241662 -66.680717 -44.3074417 -65.937983 -44.9566588 -65.0315832 -45.2281504 -64.0253749 -46.0225315 -62.21448 -45.9431236 -60.4037537 -47.7610742 Z"/>
<path data-iso="CA-NT" data-country="CA" data-name="Northwest Territories" d="M -125.765958 -74.3630772 L -123.600088 -75.8643967 -123.912148 -76.0489961 -123.644521 -76.4780153 -119.769668 -77.4758597 -116.875615 -77.7897644 -114.894687 -78.4836872 -110.0027326 -79.1299817 -110.0016874 -70.0004973 -112.5019148 -70.0004697 -112.3190877 -69.8959528 -112.6519274 -69.833844 -112.8852879 -70.000467 -117.1169164 -70.0004251 -116.6325788 -69.6321212 -120.680556 -69.5563022 -120.6828104 -68.0002875 -112.5012946 -65.5003203 -110.6678591 -65.5003267 -109.3344286 -64.8336372 -102.0006191 -64.2336722 -102.0075681 -59.9994439 -123.8102524 -60.0009623 -124.6093847 -60.65228 -124.5772551 -60.951695 -126.8481291 -60.7607267 -127.1397738 -61.4629 -128.5976254 -62.1410586 -129.2810727 -62.1508101 -129.1814812 -62.4879246 -129.7853331 -62.8731251 -129.6288968 -63.0796222 -130.1922562 -63.2509581 -129.8127065 -63.4598132 -130.360304 -63.7049215 -130.1338623 -63.8553613 -130.7734192 -63.972067 -131.1503204 -64.4167256 -131.851287 -64.3806628 -131.6892451 -64.531475 -132.63489 -64.8308775 -132.338202 -65.0733348 -132.7866204 -65.2339242 -132.165499 -65.6174657 -132.5639647 -65.8415609 -132.3294064 -65.9850187 -133.6318212 -65.9568306 -133.5722044 -66.2441044 -133.847763 -66.3180447 -133.5767426 -66.5577574 -134.1033188 -66.9532848 -133.8200842 -67 -136.2091576 -67.0561698 -136.0839426 -67.307565 -136.4450602 -67.6611792 -136.588001 -69.4031067 -136.32457 -69.5912267 -134.485958 -69.9832933 -133.452016 -69.7870119 -128.740393 -70.7711064 -126.44573 -72.1276703 -125.020265 -73.5220739 -125.394047 -73.6501386 -125.301362 -74.0190828 Z"/>
<path data-iso="CA-NU" data-country="CA" data-name="ᓄᓇᕗᑦ Nunavut" d="M -69.6769027 -59.5152976 L -69.4899778 -59.8691976 -69.8038577 -60.5249211 -69.3634109 -60.8075943 -69.511463 -61.0708941 -69.9011457 -60.80019 -70.1300487 -61.0907926 -71.5790845 -61.1636631 -71.9164556 -61.3936491 -71.5688757 -61.4037681 -71.867637 -61.4235857 -71.5508683 -61.6173399 -72.2689232 -61.5556014 -71.980542 -61.678458 -72.5665124 -61.9508069 -72.7977217 -61.8235606 -72.6118901 -62.111108 -73.6718131 -62.4802205 -74.7481996 -62.2092049 -74.5283883 -62.0952679 -75.3420028 -62.3169129 -75.8524216 -62.1578939 -75.5612507 -62.271908 -77.4243573 -62.5808081 -78.089891 -62.3625588 -78.0216086 -61.7275112 -77.4643928 -61.5232765 -77.8127137 -61.4631266 -77.7088964 -61.1760581 -78.2268673 -60.7840229 -77.5109441 -60.8425582 -77.8367084 -60.6365298 -77.3770235 -60.5212647 -77.7756178 -60.3855571 -77.4632141 -60.2001987 -77.6363755 -60.0574967 -77.1904685 -60.0451858 -77.4616496 -59.9174845 -77.2885238 -59.7912646 -77.8096 -59.7072277 -77.7107733 -59.5436489 -77.9519537 -59.4050526 -77.6411064 -59.3703856 -78.5761231 -58.9196338 -78.3513482 -58.68553 -78.5979402 -58.6754931 -77.4815527 -58.2782473 -76.8332749 -57.6656614 -76.5272072 -56.3795132 -77.7939655 -55.2616202 -79.7623086 -54.6328315 -78.96543 -54.00465 -79.15474 -53.9480099 -78.88594 -53.5554101 -79.13577 -53.5003801 -78.8957616 -53.4023519 -78.9945737 -53.0134392 -78.7940806 -53.0040427 -78.87327 -52.7400799 -78.5022709 -52.3472719 -78.6268022 -51.983599 -79.0438 -51.76356 -78.7648226 -51.4844949 -78.9151104 -51.2666759 -79.3139935 -51.6655285 -79.8723221 -51.1694955 -80.3851396 -51.3386689 -80.6853962 -51.8477224 -81.4241337 -52.1442564 -82.2925952 -53.0005463 -82.0995428 -53.2705004 -82.4408895 -54.3552102 -82.1966297 -54.7920449 -82.318883 -55.14934 -85.0513578 -55.2725395 -87.3613169 -55.9545645 -88.8770342 -56.8599652 -90.63384 -57.2380599 -92.6872366 -56.9859069 -92.42666 -57.3632299 -93.1667447 -58.7249717 -94.4654557 -58.724588 -94.857 -59.06825 -94.6618811 -59.351329 -94.8261809 -59.9994213 -102.0075681 -59.9994439 -102.0006191 -64.2336722 -109.3344286 -64.8336372 -110.6678591 -65.5003267 -112.5012946 -65.5003203 -120.6828104 -68.0002875 -120.680556 -69.5563022 -116.6325788 -69.6321212 -117.1169164 -70.0004251 -112.8852879 -70.000467 -112.6519274 -69.833844 -112.3190877 -69.8959528 -112.5019148 -70.0004697 -110.0016874 -70.0004973 -110.0027326 -79.1299817 -97.5493894 -80.5137817 -95.4558961 -81.4357172 -91.5903506 -82.0871953 -80.6831594 -83.1220064 -69.2859514 -83.3052214 -62.6258531 -82.9923917 -59.8233933 -82.4827267 -59.6263356 -82.2996308 -67.1205487 -80.74915 -70.2221564 -79.6553978 -73.4490175 -79.1354869 -73.1099334 -78.753813 -74.1294325 -78.2506883 -77.27049 -77.3469919 -76.8698736 -76.8444708 -76.9400217 -76.6377147 -77.6052864 -76.3767867 -78.6969586 -75.3499339 -78.5892839 -74.8243597 -79.4521922 -74.5293917 -79.335055 -73.8567247 -76.7075394 -73.6573975 -73.142975 -71.9231439 -71.1854386 -71.6585519 -67.8751294 -70.6997028 -66.6772056 -70.035705 -66.1091486 -69.2858283 -66.0929592 -68.6415006 -61.7476286 -67.2671556 -60.7942919 -66.7197175 -61.7190806 -65.5356636 -63.9622978 -64.2536994 -63.2460808 -62.9116197 -64.2766956 -61.807735 -64.1168206 -61.5214828 -64.33399 -61.2816 -64.0260853 -60.4770255 -64.8582303 -60.370971 -65.5592203 -59.7359253 -65.4380594 -59.5711158 -65.9904194 -58.9164144 -67.591085 -58.2602552 -68.3885384 -58.8375192 -69.1698604 -58.9269495 -69.1549802 -59.1476244 -69.4817193 -59.1734784 -69.2087354 -59.240437 Z"/>
<path data-iso="CA-ON" data-country="CA" data-name="Ontario" d="M -95.1534271 -49.5856666 L -95.1536713 -52.8415679 -88.8770342 -56.8599652 -87.3613169 -55.9545645 -85.0513578 -55.2725395 -82.2521818 -55.1098499 -82.4408895 -54.3552102 -82.0995428 -53.2705004 -82.2925952 -53.0005463 -81.4241337 -52.1442564 -80.6853962 -51.8477224 -80.3851396 -51.3386689 -79.7912829 -51.1607309 -79.5164173 -51.488565 -79.5870363 -47.4365578 -79.3169329 -46.9345703 -78.7105866 -46.3247604 -76.7826084 -45.873993 -76.6074072 -45.5320741 -75.8172909 -45.3724669 -74.6324449 -45.6370947 -74.3810283 -45.5655785 -74.3201062 -45.1881599 -75.4137222 -44.7721667 -76.7966872 -43.6311274 -78.6903889 -43.6311389 -79.2006667 -43.4504722 -78.9353817 -42.8282908 -82.6797168 -41.6765629 -83.1496826 -42.0409889 -83.0794903 -42.3087142 -82.5189332 -42.6137372 -82.1228056 -43.5911944 -82.5186111 -45.3386389 -83.5971667 -45.8212778 -83.5719444 -46.1057778 -83.9554722 -46.05675 -84.129 -46.5305 -84.5568333 -46.4608056 -84.8601389 -46.8889167 -88.369862 -48.306063 -89.33755 -47.974261 -90.88575 -48.2459444 -91.5675 -48.0437778 -92.0552222 -48.3593611 -92.3699167 -48.2202778 -92.9547778 -48.6315556 -93.788 -48.5158611 -94.5385278 -48.7026944 Z"/>
<path data-iso="CA-PE" data-country="CA" data-name="Prince Edward Island" d="M -64.4557681 -47.0564791 L -63.328871 -47.6024791 -62.98636 -47.1397285 -62.2999563 -46.839999 -61.3993669 -46.8399985 -61.7818549 -46.2156982 -62.7775294 -45.8494597 -64.3816245 -46.4126746 Z"/>
<path data-iso="CA-QC" data-country="CA" data-name="Québec" d="M -66.7622622 -52.6671212 L -66.3647682 -53.0213319 -66.3694719 -52.1451123 -66.2620853 -52.3104615 -65.9882178 -52.0564754 -65.4864828 -52.1099812 -65.3497278 -51.8223074 -64.5516993 -51.5766912 -64.2786427 -51.7385697 -64.1482982 -52.7292601 -63.610003 -52.8856153 -63.3781099 -52.6605524 -64.0963558 -52.4734166 -63.7442058 -52.315588 -63.6423254 -52.0407904 -63.8056199 -52.0000707 -57.1074889 -52.0000758 -57.1074889 -51.3771358 -60.4768198 -48.7813802 -60.4037537 -47.7610742 -61.3993669 -46.8399985 -62.2999563 -46.839999 -62.98636 -47.1397285 -63.625121 -48.0000632 -64.2737962 -48.2206848 -65.5361394 -47.8286068 -66.3920415 -48.0892456 -67.3741962 -47.8439573 -68.1226045 -47.999843 -68.3823342 -47.9161169 -68.5692747 -47.4271241 -69.0509608 -47.3000884 -69.22447 -47.4598397 -69.9971231 -46.6955228 -70.6348875 -45.3834186 -71.4428239 -45.2382931 -71.5010194 -45.0134458 -74.663059 -44.998923 -74.3201062 -45.1881599 -74.3830661 -45.5666025 -76.3641354 -45.4578819 -76.7826084 -45.873993 -78.9163203 -46.4809875 -79.586899 -47.4349557 -79.5415529 -51.5495052 -79.22727 -51.64525 -78.9151104 -51.2666759 -78.7648226 -51.4844949 -79.0438 -51.76356 -78.6268022 -51.983599 -78.5118842 -52.4580099 -78.9945737 -53.0134392 -78.8957616 -53.4023519 -79.13575 -53.50089 -78.88594 -53.5554101 -79.0903399 -53.70771 -78.9265603 -53.8291882 -79.15474 -53.9480099 -78.96543 -54.00465 -79.7626795 -54.6320817 -77.5525785 -55.3959382 -76.6907132 -56.0480429 -76.5178426 -56.4520578 -76.6615556 -57.4068758 -77.1490958 -58.0099678 -78.5979402 -58.6754931 -78.3513482 -58.68553 -78.5761231 -58.9196338 -77.6411064 -59.3703856 -77.9519537 -59.4050526 -77.7107733 -59.5436489 -77.8096 -59.7072277 -77.2885238 -59.7912646 -77.4616496 -59.9174845 -77.1903409 -60.0461764 -77.6363755 -60.0574967 -77.4632141 -60.2001987 -77.7756178 -60.3855571 -77.3770235 -60.5212647 -77.8367084 -60.6365298 -77.5109441 -60.8425582 -78.2268673 -60.7840229 -77.7088964 -61.1760581 -77.8127137 -61.4631266 -77.4643928 -61.5232765 -78.004539 -61.705865 -78.1941274 -62.2559697 -77.4243573 -62.5808081 -75.5612507 -62.271908 -75.8524216 -62.1578939 -75.3420028 -62.3169129 -74.5283883 -62.0952679 -74.7481996 -62.2092049 -73.6718131 -62.4802205 -72.6118901 -62.111108 -72.7977217 -61.8235606 -72.5665124 -61.9508069 -71.980542 -61.678458 -72.2689232 -61.5556014 -71.5508683 -61.6173399 -71.867637 -61.4235857 -71.5688757 -61.4037681 -71.9164556 -61.3936491 -71.5790845 -61.1636631 -70.1300487 -61.0907926 -69.9011457 -60.80019 -69.5046311 -61.0684659 -69.3634109 -60.8075943 -69.8038577 -60.5249211 -69.4899778 -59.8691976 -69.6017927 -59.3484694 -69.2059646 -59.2542191 -69.4712155 -59.1523372 -68.3389055 -58.8161173 -67.6299343 -58.2651185 -65.9904194 -58.9164144 -65.4380594 -59.5711158 -65.5592203 -59.7359253 -64.8582303 -60.370971 -64.5174759 -60.3043982 -64.8622585 -60.2584685 -64.5937159 -60.1170313 -64.9236433 -60.0614651 -64.6267982 -59.9302946 -64.9394392 -59.567046 -64.3240693 -59.5127741 -64.5435363 -59.3104351 -64.2617912 -59.0129566 -64.8891115 -58.9383822 -63.4675041 -58.7620471 -64.0472222 -58.7026285 -63.8078501 -58.4897461 -64.4353949 -58.0983753 -64.0720013 -57.7700203 -63.5967704 -57.7412477 -63.8591562 -56.86874 -64.1453144 -56.6997548 -63.8742302 -56.4419604 -64.1779849 -56.4252436 -63.8629333 -56.2125891 -64.0346669 -56.0701446 -63.4435451 -56.0295164 -63.8544417 -55.9100124 -63.6436901 -55.6415794 -63.7926828 -55.4672386 -63.3248487 -55.3660469 -63.6794751 -55.2668869 -63.4028344 -55.2490065 -63.5914437 -54.8965921 -63.8298169 -54.9420523 -63.7126254 -54.6249508 -63.8978634 -54.6007038 -65.0858147 -54.9695628 -65.6931728 -54.708164 -66.8078429 -55.356744 -66.669113 -54.7096727 -67.4637039 -55.0628569 -67.0629008 -54.6929331 -67.7669648 -54.4368141 -67.6156181 -54.1957555 -67.8216853 -54.0257023 -66.8900909 -53.4130615 -66.9895314 -53.0843568 -67.3838223 -53.0881706 Z"/>
<path data-iso="CA-SK" data-country="CA" data-name="Saskatchewan" d="M -110.006368 -59.9996139 L -102.0075681 -59.9994439 -102.004039 -55.8093815 -101.361989 -48.9994722 -110.005056 -48.9996249 Z"/>
<path data-iso="CA-YT" data-country="CA" data-name="Yukon" d="M -136.4450602 -67.6611792 L -136.0839426 -67.307565 -136.1680978 -67.0060289 -133.8200842 -67 -134.1033188 -66.9532848 -133.5767426 -66.5577574 -133.847763 -66.3180447 -133.5722044 -66.2441044 -133.6318212 -65.9568306 -132.3326604 -65.9890974 -132.5639647 -65.8415609 -132.165499 -65.6174657 -132.7866204 -65.2339242 -132.338202 -65.0733348 -132.6350134 -64.8310321 -131.6892451 -64.531475 -131.851287 -64.3806628 -131.1503204 -64.4167256 -130.7734192 -63.972067 -130.1338623 -63.8553613 -130.360304 -63.7049215 -129.8127065 -63.4598132 -130.1922562 -63.2509581 -129.6288968 -63.0796222 -129.7853331 -62.8731251 -129.1814812 -62.4879246 -129.2810727 -62.1508101 -128.5976254 -62.1410586 -127.1397738 -61.4629 -126.8481291 -60.7607267 -124.5772551 -60.951695 -124.6093847 -60.65228 -123.8102524 -60.0009623 -139.0613278 -59.9996374 -139.074818 -60.3525047 -141.00198 -60.3063692 -141.00275 -69.84588 -138.877031 -69.824481 -138.033046 -69.481297 -136.588001 -69.4031067 Z"/>
<path data-iso="MX-AGU" data-country="MX" data-name="Aguascalientes" d="M -102.748588 -21.7221871 L -102.6687428 -22.291871 -102.3118048 -22.4569158 -101.8541598 -22.0443446 -102.2336055 -21.6531956 Z"/>
<path data-iso="MX-BCN" data-country="MX" data-name="Baja California" d="M -114.7199073 -32.7187133 L -115.0530223 -32.245174 -114.806303 -31.8164206 -114.6677225 -30.1914185 -112.8467154 -28.4409001 -112.7649287 -28 -114.2047059 -27.9999878 -114.1639487 -28.6405544 -115.6998776 -29.7552034 -116.0577679 -30.7961057 -117.1242467 -32.5343396 Z"/>
<path data-iso="MX-BCS" data-country="MX" data-name="Baja California Sur" d="M -114.3025211 -27.1323069 L -115.0820837 -27.8485041 -112.7649287 -28 -111.442142 -26.5178697 -111.3062725 -25.7734964 -110.6572236 -24.8068596 -110.6803101 -24.3553073 -109.8267995 -24.0605744 -109.4232193 -23.4454956 -109.4949662 -23.150492 -109.9833745 -22.8810039 -110.3360229 -23.5661622 -112.0964 -24.5534 -112.3045121 -24.7946946 -112.1015909 -25.7516537 -112.3513587 -26.1872668 Z"/>
<path data-iso="MX-CAM" data-country="MX" data-name="Campeche" d="M -90.3803117 -20.8481857 L -90.3866488 -20.5555858 -90.0041737 -20.4870219 -89.1466668 -19.4238616 -89.1519123 -17.8155996 -90.9877156 -17.8153438 -91.5096207 -18.1710588 -91.6389027 -17.8735056 -92.425431 -18.511092 -91.8556769 -18.6114261 -90.7587835 -19.3071907 Z"/>
<path data-iso="MX-CHH" data-country="MX" data-name="Chihuahua" d="M -107.8539671 -26.1964841 L -108.1942931 -27.0320969 -108.6021786 -27.0369847 -108.6522059 -27.537834 -109.0694496 -28.1332797 -108.479701 -28.369551 -108.761902 -29.254683 -108.542199 -30.2835122 -108.9483025 -30.7369113 -108.6838075 -31.0059734 -108.9062908 -31.213343 -108.2084835 -31.3333734 -108.2085021 -31.7836928 -106.5281875 -31.7838826 -104.92263 -30.60366 -104.50828 -29.63249 -103.30699 -29.02386 -103.9549735 -27.950821 -103.6990941 -26.7252564 -104.273037 -26.8423 -104.5744514 -26.3404682 -106.0473664 -26.8447877 -106.6525694 -25.558657 Z"/>
<path data-iso="MX-CHP" data-country="MX" data-name="Chiapas" d="M -92.7541802 -17.3432986 L -91.8125212 -17.900372 -91.6999794 -17.4672978 -90.372307 -16.3726087 -90.4421549 -16.0738051 -91.7315687 -16.0738945 -92.2105499 -15.2606071 -92.0592798 -15.0708208 -92.2283178 -14.5310748 -94.1027637 -16.1425159 -93.8609158 -17.1637411 -93.2783226 -17.9852878 Z"/>
<path data-iso="MX-CMX" data-country="MX" data-name="Ciudad de México" d="M -99.1194622 -19.591992 L -98.9789954 -19.074456 -99.2786952 -19.1317017 Z"/>
<path data-iso="MX-COA" data-country="MX" data-name="Coahuila" d="M -103.5098418 -25.2784701 L -103.2608253 -26.2847268 -103.8517007 -26.8961338 -103.9549735 -27.950821 -102.67467 -29.74434 -101.40225 -29.77177 -100.67542 -29.10148 -99.8433 -27.77543 -99.9988448 -27.6152794 -100.1884255 -27.7991372 -100.8314923 -27.1989089 -100.5381557 -26.8085582 -101.2067627 -26.3697782 -100.2295756 -25.2179165 -100.8031305 -25.1652585 -100.7999341 -24.5561861 -100.9587926 -24.5426841 -102.295513 -25.1252355 -102.669694 -25.0666365 -102.8697968 -24.7419594 Z"/>
<path data-iso="MX-COL" data-country="MX" data-name="Colima" d="M -103.7377599 -18.6841747 L -104.6889767 -19.1840926 -103.6182765 -19.5125187 Z"/>
<path data-iso="MX-DUR" data-country="MX" data-name="Durango" d="M -105.0075527 -22.5856719 L -105.0031394 -22.9769826 -105.6439907 -23.141768 -106.0758432 -24.2713892 -106.5279912 -24.2951237 -107.2078165 -25.3315642 -106.9944385 -25.6616845 -106.4633762 -25.728722 -106.5469641 -25.9520973 -106.0473664 -26.8447877 -104.5744514 -26.3404682 -104.273037 -26.8423 -103.3741835 -26.6023549 -103.4932393 -25.5385304 -103.3369162 -25.3712311 -103.5107101 -25.2791261 -102.8697968 -24.7419594 -102.669694 -25.0666365 -102.5121823 -24.7097211 -102.4802672 -24.4280138 -103.4193324 -24.430488 -103.8723865 -24.0070217 -103.7935417 -23.630855 -104.065977 -23.4634932 -104.0804752 -22.7666168 -104.320188 -22.4300942 Z"/>
<path data-iso="MX-GRO" data-country="MX" data-name="Guerrero" d="M -98.584532 -17.97383 L -98.0072764 -17.0401373 -98.5528088 -16.3162249 -101.0610903 -17.2660082 -102.1844097 -18.0594056 -101.734515 -18.6110362 -100.6429996 -18.3461577 -100.7989689 -18.7845358 -100.6102127 -18.8878468 -100.3037532 -18.3670172 -99.6969935 -18.7863369 Z"/>
<path data-iso="MX-GUA" data-country="MX" data-name="Guanajuato" d="M -100.0641719 -20.9362886 L -100.5775889 -20.8166697 -100.3235584 -20.251934 -100.5199464 -19.9188201 -102.0972846 -20.3864918 -102.079867 -20.8290651 -101.4738734 -21.827391 -100.614955 -21.5057892 -100.3513655 -21.6916708 -99.7760805 -21.4945369 -99.6878548 -21.2257802 Z"/>
<path data-iso="MX-HID" data-country="MX" data-name="Hidalgo" d="M -99.3972807 -21.1020704 L -98.9449608 -21.3113366 -98.6966405 -21.1614601 -98.4861143 -21.3985208 -98.1474103 -21.0765834 -98.5501798 -20.6893925 -98.5489667 -20.3602861 -98.0749028 -20.6765478 -97.9849289 -20.5158874 -98.2844435 -20.2627888 -98.0978794 -20.1453897 -98.1956988 -19.7416197 -98.6346866 -19.5977581 -98.6726589 -19.8628346 -99.0082007 -19.8284021 -98.9889779 -20.0682619 -99.3830319 -19.7714155 -99.51224 -20.1751 -99.8595095 -20.2647688 Z"/>
<path data-iso="MX-JAL" data-country="MX" data-name="Jalisco" d="M -105.273282 -20.5492167 L -105.1418566 -20.8871673 -104.7824622 -21.0233591 -104.2536398 -20.6034187 -104.2193979 -21.1766105 -103.7493518 -21.3367085 -103.9217456 -21.77033 -104.3711642 -21.9760381 -104.214828 -22.4841615 -103.9293927 -22.4760986 -104.0129993 -22.7476259 -103.7521056 -22.7121615 -103.862936 -22.1668824 -103.726555 -22.5741466 -103.5591937 -22.4284276 -103.6838473 -22.1092052 -103.2852307 -22.4142442 -103.0554552 -22.2472563 -103.6897889 -21.5523532 -103.5689588 -21.1167177 -103.1273291 -21.0535311 -102.677777 -21.34089 -102.6689263 -21.7640514 -102.3101475 -21.6266765 -101.8014361 -22.0309962 -101.5105417 -21.7990585 -102.079867 -20.8290651 -102.0708826 -20.4090192 -103.0441523 -20.1241193 -102.5435967 -19.43096 -103.1250194 -18.9301446 -103.4950202 -18.9706664 -103.6182765 -19.5125187 -104.589083 -19.1503691 -104.9370906 -19.3087118 -105.6927654 -20.3882344 Z"/>
<path data-iso="MX-MEX" data-country="MX" data-name="Estado de México" d="M -99.9776512 -20.2723774 L -99.51224 -20.1751 -99.3824452 -19.7712041 -98.9889779 -20.0682619 -99.0082007 -19.8284021 -98.6726589 -19.8628346 -98.6198746 -19.0350596 -98.9789954 -19.074456 -99.1237061 -19.5927573 -99.4938702 -18.7208211 -100.3033764 -18.3669429 -100.6128974 -18.8934545 -100.1898726 -19.4397041 Z"/>
<path data-iso="MX-MIC" data-country="MX" data-name="Michoacán" d="M -102.5741579 -19.5132109 L -103.0444075 -20.1236013 -102.1631795 -20.3795196 -101.888114 -20.1883933 -101.4652205 -20.3291797 -101.4016803 -20.0350091 -100.7487528 -19.9127502 -100.3629311 -19.9898611 -100.3458331 -20.2980002 -100.0633589 -19.8618987 -100.4108272 -19.0635951 -100.7917709 -18.8341685 -100.6429996 -18.3461577 -101.7717942 -18.6037214 -102.18258 -17.9149892 -103.361553 -18.264744 -103.7377599 -18.6841747 -103.4730955 -18.9910667 -103.1250194 -18.9301446 -102.6695002 -19.2127096 Z"/>
<path data-iso="MX-MOR" data-country="MX" data-name="Morelos" d="M -99.2857689 -19.1279868 L -98.632947 -19.01555 -98.7066991 -18.4451122 -99.357404 -18.467669 -99.494414 -18.720545 Z"/>
<path data-iso="MX-NAY" data-country="MX" data-name="Nayarit" d="M -105.7603585 -22.5306179 L -105.4417247 -22.5242684 -105.384712 -23.08448 -105.0031394 -22.9769826 -104.9879125 -22.4987265 -104.7889188 -22.6479736 -104.2931275 -22.3651311 -104.3710366 -21.9757243 -103.7210315 -21.4246071 -104.2193979 -21.1766105 -104.2536398 -20.6034187 -104.7824622 -21.0233591 -105.2888232 -20.6696404 -105.5392793 -20.7706489 -105.1880855 -21.4601233 Z"/>
<path data-iso="MX-NLE" data-country="MX" data-name="Nuevo León" d="M -100.1018952 -23.2310804 L -100.4798813 -23.1943263 -100.8031305 -25.1652585 -100.2295756 -25.2179165 -101.2067627 -26.3697782 -100.6144002 -26.6856389 -100.5339978 -27.0455844 -100.8341234 -27.195174 -100.1884255 -27.7991372 -99.73753 -27.69227 -99.9264182 -27.549157 -99.6591644 -26.6703651 -99.3968248 -26.5965655 -99.1597243 -26.06124 -98.585126 -26.0179176 -98.5817515 -25.4893617 -98.421576 -25.4893555 -99.7329634 -24.5539743 -99.4568707 -23.866063 -99.8606599 -23.7744624 Z"/>
<path data-iso="MX-OAX" data-country="MX" data-name="Oaxaca" d="M -94.9283046 -16.2069283 L -96.5574075 -15.6568776 -98.5496832 -16.3136564 -98.0072764 -17.0401373 -98.4963427 -17.7688094 -97.699742 -18.001637 -97.797297 -18.283175 -97.466918 -18.026951 -96.6925975 -18.3662371 -96.6830217 -18.6696881 -96.4614533 -18.5732613 -96.2174781 -18.1619674 -95.8331669 -18.1290268 -95.9027736 -17.7326526 -95.7022439 -17.5185321 -95.2384508 -17.7388718 -94.9224739 -17.1937597 -93.8674267 -17.1369649 -94.139156 -16.4617864 -94.0002262 -16.0030772 Z"/>
<path data-iso="MX-PUE" data-country="MX" data-name="Puebla" d="M -98.7066991 -18.4451122 L -98.6532265 -19.4659862 -98.166176 -19.105072 -97.626356 -19.323934 -98.3150043 -19.8551156 -98.0978794 -20.1453897 -98.2844435 -20.2627888 -97.8791198 -20.8342759 -97.6900219 -20.8001145 -97.5422088 -20.4878391 -97.7567299 -20.2096884 -97.1224088 -20.1367215 -97.4342785 -19.5888484 -96.9855601 -19.2793968 -97.343975 -18.685759 -96.7276883 -18.3953241 -97.466918 -18.026951 -97.797297 -18.283175 -97.819287 -17.914738 -98.398755 -17.860912 -99.06371 -18.251483 Z"/>
<path data-iso="MX-QUE" data-country="MX" data-name="Querétaro" d="M -100.4697146 -20.3870063 L -100.4722328 -20.928446 -99.6878548 -21.2257802 -99.7467432 -21.5783632 -99.4059211 -21.4282713 -99.188175 -21.6700054 -99.0430799 -21.1786772 -99.3975089 -21.1018011 -99.9263374 -20.0643306 Z"/>
<path data-iso="MX-ROO" data-country="MX" data-name="Quintana Roo" d="M -86.7788533 -21.0328492 L -87.4232666 -20.2262638 -87.4696308 -19.7803486 -87.7423096 -19.6634835 -87.4101555 -19.5981115 -87.6905802 -19.2305126 -87.4455915 -19.3130418 -87.8443193 -18.1911078 -88.4768676 -18.4940314 -88.8598292 -17.8943094 -89.205872 -17.9540997 -89.2965618 -19.551174 -87.7442594 -20.653787 -87.535015 -21.4896959 -87.0853776 -21.589367 Z"/>
<path data-iso="MX-SIN" data-country="MX" data-name="Sinaloa" d="M -107.96269555937373 -24.6900998065261 L -108.4563212 -25.2608172 -109.3961397 -25.6404316 -109.2875558 -26.2784159 -108.6788307 -26.587015 -108.4869774 -27.0365806 -108.1942931 -27.0320969 -107.841013 -26.1836011 -107.3465278 -26.1095231 -106.9653226 -25.6978785 -107.2101322 -25.4171005 -107.1298916 -25.0531388 -106.5170935 -24.2869842 -106.0758432 -24.2713892 -105.8926553 -23.5526452 -105.3987955 -23.1022109 -105.4417247 -22.5242684 -107.1333289 -24.1560734 -107.48348921609059 -24.338416204368215 -107.524492 -24.5399471 Z"/>
<path data-iso="MX-SLP" data-country="MX" data-name="San Luis Potosí" d="M -100.0940599 -22.7512651 L -99.4967885 -22.7484979 -99.2368387 -22.412862 -98.325967 -22.2430528 -98.5788391 -21.9660923 -98.6131415 -21.1975754 -99.1043454 -21.2895979 -99.188175 -21.6700054 -99.503814 -21.418563 -101.4963312 -21.8099396 -101.3492339 -22.7117792 -101.7992766 -22.470558 -102.2960384 -23.3205012 -101.7751224 -23.4476293 -101.1925049 -23.9185591 -100.987332 -24.4325214 -100.9452859 -24.2811958 -100.711201 -24.4915166 -100.4798813 -23.1943263 -100.2182757 -23.3100765 Z"/>
<path data-iso="MX-SON" data-country="MX" data-name="Sonora" d="M -112.29883215067494 -29.205805089958293 L -113.084268 -30.6784813 -113.1102736 -31.1996161 -114.9106362 -31.8676014 -115.0530223 -32.245174 -114.8135922 -32.4940383 -111.1342966 -31.3515317 -108.7559162 -31.332419 -108.9062214 -31.2063633 -108.6838075 -31.0059734 -108.9483025 -30.7369113 -108.542199 -30.2835122 -108.761902 -29.254683 -108.479701 -28.369551 -109.0730381 -28.1487449 -108.4242708 -26.9762298 -109.1252338 -26.297043 -109.4357881 -26.7157161 -109.7672747 -26.7071472 -109.9672071 -27.0541803 -110.599269 -27.3139841 -110.5264677 -27.850803 -111.1049831 -27.9367488 -112.1722367 -28.9684412 -112.26186933751745 -29.136500568602397 -112.2528867 -28.7671548 -112.5842294 -28.8763885 Z"/>
<path data-iso="MX-TAB" data-country="MX" data-name="Tabasco" d="M -94.0834307 -17.8698684 L -94.1261521 -18.2161747 -92.4720833 -18.650434 -91.9666369 -18.015899 -91.6389027 -17.8735056 -91.5096207 -18.1710588 -90.9879692 -17.9623928 -90.9872641 -17.2512992 -91.4399546 -17.2508691 -91.9998878 -17.9433446 -92.7295083 -17.3481285 -93.2783226 -17.9852878 -93.6079398 -17.31493 Z"/>
<path data-iso="MX-TAM" data-country="MX" data-name="Tamaulipas" d="M -97.40561 -25.83764 L -97.1466872 -25.9534525 -97.6866585 -24.4544111 -97.8448882 -22.2069658 -98.1949952 -22.4695589 -98.8899972 -22.3550935 -99.4967885 -22.7484979 -100.1019204 -22.7627927 -100.1449502 -23.3395151 -99.9212534 -23.3791913 -99.8606599 -23.7744624 -99.4568707 -23.866063 -99.7329634 -24.5539743 -98.421576 -25.4893555 -98.5817515 -25.4893617 -98.585126 -26.0179176 -98.9007519 -25.9683227 -99.4012361 -26.3047991 -99.9264182 -27.549157 -99.5137 -27.56953 -99.0845303 -26.3979773 Z"/>
<path data-iso="MX-TLA" data-country="MX" data-name="Tlaxcala" d="M -98.6813799 -19.5982849 L -98.060808 -19.728917 -97.62545 -19.326622 -98.166176 -19.105072 Z"/>
<path data-iso="MX-VER" data-country="MX" data-name="Veracruz" d="M -95.8725801 -18.8389136 L -94.8165737 -18.5385758 -94.5619263 -18.17031 -94.1319832 -18.2134572 -93.6079398 -17.31493 -93.8674267 -17.1369649 -94.9224739 -17.1937597 -95.2384508 -17.7388718 -95.8075496 -17.5918416 -95.8331669 -18.1290268 -96.2174781 -18.1619674 -96.4610706 -18.5730436 -96.6830217 -18.6696881 -96.696446 -18.3647583 -97.323178 -18.6643085 -97.2613994 -19.0966272 -96.9855601 -19.2793968 -97.4342785 -19.5888484 -97.1224088 -20.1367215 -97.7567299 -20.2096884 -97.5422088 -20.4878391 -97.8455926 -20.8396271 -97.9793337 -20.5149334 -98.0749028 -20.6765478 -98.5488493 -20.3600805 -98.5501798 -20.6893925 -98.1473582 -21.0784497 -98.5439817 -21.2639012 -98.5788391 -21.9660923 -98.325967 -22.2430528 -98.6708881 -22.4056734 -97.7743477 -22.263916 -97.3279044 -21.5671652 -97.1774675 -20.6620879 Z"/>
<path data-iso="MX-YUC" data-country="MX" data-name="Yucatán" d="M -89.1090244 -19.5823493 L -89.4124785 -19.6493763 -90.0041737 -20.4870219 -90.3866488 -20.5555858 -90.3389591 -21.004804 -89.6810913 -21.3492257 -88.1450203 -21.6239504 -87.535015 -21.4896959 -87.7442594 -20.653787 Z"/>
<path data-iso="MX-ZAC" data-country="MX" data-name="Zacatecas" d="M -102.8056758 -21.9958507 L -102.6425949 -21.3672006 -103.3531029 -21.04526 -103.7162114 -21.2678685 -103.5039202 -21.376837 -103.6897889 -21.5523532 -103.0554552 -22.2472563 -103.2852307 -22.4142442 -103.6838473 -22.1092052 -103.5591937 -22.4284276 -103.726555 -22.5741466 -103.862936 -22.1668824 -103.7519862 -22.7116453 -103.9093425 -22.7501238 -104.0151338 -22.3648129 -104.08188 -22.5335564 -104.3516612 -22.3891928 -104.0804752 -22.7666168 -104.065977 -23.4634932 -103.7935417 -23.630855 -103.8723865 -24.0070217 -103.4193324 -24.430488 -102.4802672 -24.4280138 -102.6729844 -24.9788182 -102.4633252 -25.1159162 -100.7999341 -24.5561861 -101.1925049 -23.9185591 -102.2960384 -23.3205012 -101.7992766 -22.470558 -101.3492339 -22.7117792 -101.3274846 -21.9970264 -101.5370119 -21.810462 -102.2983068 -22.4595896 Z"/>
<path data-iso="US-AK" data-country="US" data-name="Alaska" d="M -172.2656508 -63.4039878 L -172.147331 -63.8701433 -171.6401066 -63.9845304 -169.8610481 -63.830997 -168.2434059 -63.2947488 -168.5129994 -62.9287271 -169.6714562 -62.7372625 -170.7707203 -63.1806157 -171.6175216 -63.1149328 Z M -173.5181908 -60.6818139 L -173.0733992 -60.8988192 -171.8203234 -60.3155043 -172.7626553 -59.9963374 Z M -170.7695004 -57.0960663 L -170.6710144 -57.3393597 -170.1778164 -57.4464974 -169.5684974 -57.1953342 -170.3382716 -56.8456133 Z M -170.1480522 -56.6125718 L -169.9331431 -56.7960975 -169.1068405 -56.622411 -169.425018 -56.3504034 Z M -167.8921296 -65.1701806 L -167.5791382 -64.9500186 -168.2446455 -64.7732421 -168.5492815 -64.910378 Z M -174.8519569 -52.3318445 L -174.1690689 -52.6205984 -172.9818317 -52.2970605 -172.3365671 -52.5878918 -171.9718405 -52.3305727 -173.0774407 -51.8131407 -175.2603345 -51.8075393 -176.7329439 -51.4138024 -178.5828623 -51.342983 -179.0624874 -51.0129117 -179.4510041 -51.1682361 -179.3693722 -51.6611967 -178.9752516 -52.0144573 Z M -157.4948485 -55.9709486 L -157.070662 -55.711332 -157.6663875 -55.6392739 -157.7490339 -55.8348282 Z M -156.1168456 -55.7343804 L -156.0936068 -55.9379627 -155.632539 -56.1136485 -155.2364247 -55.9811397 -155.2954906 -55.6465423 Z M -146.2525561 -59.7327691 L -145.8521912 -59.4207648 -146.4663643 -59.1887173 -146.7723404 -59.3146589 Z M -165.2533458 -54.444371 L -164.8136394 -55.024589 -163.4886762 -55.2887223 -163.3840101 -55.6360096 -162.8990111 -55.5848121 -161.9751391 -56.0732173 -160.7852426 -56.2286588 -158.2805518 -57.5544545 -157.9596914 -58.1568894 -158.1969107 -58.3825292 -159.1961035 -58.2067108 -159.5945543 -58.5384778 -161.0535703 -58.3469276 -162.3326095 -58.4616649 -162.551762 -58.6862072 -162.1735026 -58.9220435 -162.7155782 -59.6425355 -164.0655241 -59.4766381 -165.1296919 -59.9989081 -165.3446714 -59.7389321 -166.2081837 -59.5426663 -167.6542464 -59.9434356 -167.8468776 -60.1947059 -167.6854103 -60.3679937 -165.817074 -60.5583171 -165.4602149 -60.7828395 -166.5951357 -61.6128677 -166.3616922 -62.1548403 -165.3288462 -62.7937611 -165.4768683 -63.1280085 -164.1971566 -63.4615626 -163.2385267 -63.2869532 -162.9640059 -63.3982432 -163.1293839 -63.6571296 -162.7272042 -63.8217873 -161.2500247 -63.8004626 -162.1846045 -64.3363911 -162.7832827 -64.1252922 -163.7040562 -64.3664185 -166.4594089 -64.3065291 -167.4191053 -65.2022449 -169.0485821 -65.4690061 -168.976944 -65.9671796 -168.4393048 -65.8289558 -164.5365338 -66.7750519 -163.3069136 -66.7256275 -163.0072961 -66.5567836 -163.1723825 -66.3672166 -162.8823196 -66.3046452 -162.3931679 -66.4425317 -163.1453188 -66.8297055 -164.3253016 -67.0326123 -164.5277395 -67.479088 -167.3787529 -68.3688729 -166.8300453 -68.5679455 -166.5358751 -69.0442527 -164.0775356 -69.2195668 -163.5303501 -69.8992004 -162.275893 -70.4805348 -161.254138 -70.5202588 -159.4511874 -71.05271 -158.1604352 -71.0311772 -156.5328394 -71.5881876 -153.8238907 -71.0905643 -152.2699115 -71.0626129 -151.0163505 -70.6759214 -147.8230849 -70.6908113 -144.7750974 -70.2022308 -143.1184383 -70.3470879 -140.7523256 -69.8283004 -141.0006147 -69.6465701 -141.00198 -60.3063692 -139.074818 -60.3525047 -139.198845 -60.0882958 -137.607356 -59.2438033 -137.526114 -58.9063722 -136.584444 -59.1658544 -136.346389 -59.600556 -135.2336683 -59.6961431 -134.9599053 -59.2809264 -133.377303 -58.4305483 -131.835327 -56.5992028 -130.103798 -56.1227981 -129.9741673 -55.2819188 -130.656659 -54.653559 -131.080267 -54.770779 -132.071535 -54.4609712 -133.6689829 -54.5705439 -134.1407949 -55.6373576 -134.8662749 -55.7397889 -135.3976726 -56.4553144 -136.1911369 -56.9106422 -136.2495464 -57.3269734 -136.9560831 -58.0653615 -138.4756513 -58.8780484 -142.3267883 -59.8558035 -144.7187651 -59.5723369 -145.0046839 -59.7586245 -144.8388185 -59.9991376 -145.9885379 -60.1761058 -147.7388487 -59.5705561 -148.9731246 -59.7307632 -149.4121437 -59.3481253 -151.5675323 -58.9011731 -151.9354682 -58.6844285 -151.4045618 -58.2491247 -151.9535889 -57.9631663 -151.7559393 -57.638979 -151.9177722 -57.2926412 -153.4194026 -56.7100242 -153.7926615 -56.3253878 -155.1379099 -56.3569756 -154.6648771 -56.7911413 -155.2047488 -57.3331757 -154.4788817 -57.8270273 -154.7206868 -57.7999071 -155.9401705 -57.2366906 -156.6269933 -56.5995659 -156.275215 -56.0661603 -156.4330236 -55.8471129 -156.9824078 -55.8345444 -157.117536 -56.3129136 -157.3664682 -56.3150834 -158.4979327 -55.6664992 -159.2483047 -55.5328737 -158.8522404 -54.8977464 -159.3626887 -54.5790327 -161.106384 -54.9554386 -162.4506025 -54.1108126 -163.1315301 -54.1991974 -163.2546041 -54.4623536 -164.0090918 -54.4244235 -164.776332 -53.9029614 -165.7028426 -53.8436378 -166.5727707 -53.2723032 -167.9763563 -53.0664951 -169.0874308 -52.5872732 -171.200687 -52.2481743 -171.6325051 -52.4207919 -171.361538 -52.7438263 -170.4648229 -52.8769344 -169.91562 -53.2631543 -169.1953466 -53.1130097 -168.2099583 -53.754458 -168.3881461 -53.9386705 -168.2233356 -54.1160249 -167.7900244 -54.0763411 -167.8645626 -53.7504802 -167.5379525 -53.6527248 -167.322677 -54.0645648 ZM -152.330171 -59.1676267 L -152.1322999 -60.0079718 -152.9882543 -59.4696836 -153.1351951 -59.1746654 -152.8741566 -58.7660471 Z"/>
<path data-iso="US-AL" data-country="US" data-name="Alabama" d="M -84.8884169 -32.2608849 L -85.1406302 -31.8578169 -85.0023758 -31.0007167 -87.5988282 -30.9975026 -87.3718799 -30.4441017 -87.5183303 -30.22868 -88.38667 -30.1594632 -88.4731014 -31.8939025 -88.202969 -35.0081121 -85.605165 -34.984678 Z"/>
<path data-iso="US-AR" data-country="US" data-name="Arkansas" d="M -94.6178753 -36.4995 L -90.1521672 -36.4979542 -90.064196 -36.3024851 -90.37789 -35.9957227 -89.644838 -35.904351 -91.087921 -33.9752994 -91.1659657 -33.0042455 -94.0429641 -33.0192302 -94.0433167 -33.5521745 -94.4858248 -33.6377602 Z"/>
<path data-iso="US-AZ" data-country="US" data-name="Arizona" d="M -110.7228634 -31.3334561 L -114.8181546 -32.4979868 -114.469154 -32.8443911 -114.7314741 -33.3032791 -114.5343885 -33.9381666 -114.1307816 -34.2619386 -114.6347262 -34.8741371 -114.7565764 -36.0806923 -114.13735 -36.0404854 -114.0501375 -36.9997794 -109.045182 -36.9989819 -109.050048 -31.332366 Z"/>
<path data-iso="US-CA" data-country="US" data-name="California" d="M -114.6329611 -35.0018894 L -114.1382514 -34.3047508 -114.7255978 -33.4048302 -114.526846 -32.7571596 -117.2050539 -32.5295236 -117.467871 -33.212494 -118.4669672 -33.7255206 -118.5573545 -33.9876712 -120.684529 -34.527131 -120.689606 -35.098828 -121.959053 -36.287108 -122.588174 -37.789362 -123.067965 -37.958669 -123.164757 -38.388337 -123.784676 -38.893728 -123.90097 -39.780466 -124.480543 -40.428493 -124.133231 -41.432311 -124.43092 -41.862912 -119.9995297 -41.9949298 -120.0065184 -39.0032856 Z M -119.296238 -33.99724 L -120.117266 -33.84158 -120.582264 -34.107517 Z"/>
<path data-iso="US-CO" data-country="US" data-name="Colorado" d="M -102.051577 -41.00236 L -102.042132 -36.9930715 -109.045182 -36.9989819 -109.0500266 -41.000694 Z"/>
<path data-iso="US-CT" data-country="US" data-name="Connecticut" d="M -71.794052 -41.487902 L -73.612405 -40.950983 -73.727811 -41.10069 -73.481924 -41.212707 -73.4873386 -42.0495412 -71.800671 -42.023514 Z"/>
<path data-iso="US-DE" data-country="US" data-name="Delaware" d="M -75.788594 -39.7222006 L -75.5074642 -39.8350863 -75.5604145 -39.4556394 -74.9852049 -38.4512836 -75.6936638 -38.4600811 Z"/>
<path data-iso="US-FL" data-country="US" data-name="Florida" d="M -82.9997416 -24.5839167 L -82.9609671 -24.7816486 -82.645331 -24.6886349 Z M -79.975425 -26.80025 L -80.043814 -25.579119 -80.640428 -24.838434 -81.946441 -24.399348 -82.26104 -24.7007 -81.17085 -24.9675 -82.9029737 -27.4793037 -82.9457356 -28.9616817 -84.0650395 -29.9380111 -85.0630961 -29.4343154 -86.3064309 -30.2073401 -87.5183845 -30.1234654 -87.3718799 -30.4441017 -87.5988282 -30.9975026 -85.001656 -31.0006967 -84.8646122 -30.7115958 -82.2147 -30.568481 -82.1616859 -30.3572642 -81.9497482 -30.8280238 -81.3470257 -30.7123887 -81.186399 -29.76008 Z"/>
<path data-iso="US-GA" data-country="US" data-name="Georgia" d="M -81.3470257 -30.7123887 L -81.9497482 -30.8280238 -82.0653561 -30.355687 -82.2147 -30.568481 -84.9135864 -30.7510002 -85.1420063 -31.8391859 -84.8884169 -32.2608849 -85.605165 -34.984678 -83.1026624 -34.9969884 -83.3420027 -34.6802924 -82.8766111 -34.4750749 -81.4919573 -33.0090994 -81.113343 -32.1132 -80.751429 -32.033468 Z"/>
<path data-iso="US-HI" data-country="US" data-name="Hawaii" d="M -156.721737 -20.842436 L -156.591031 -21.092411 -155.928101 -20.724792 -156.672786 -20.457775 -156.5 -20.691232 Z M -175.75 -27.733254 L -176.043354 -27.795897 -175.769684 -28.007475 Z M -166.125 -23.607546 L -166.380463 -23.883978 -166.182347 -23.902325 Z M -155.029914 -19.792067 L -154.810311 -19.416057 -155.649041 -18.870503 -155.925931 -19.008154 -156.120001 -19.727176 -155.917642 -20.299704 Z M -157.11618 -20.902889 L -156.75 -20.807605 -156.973807 -20.686784 Z M -157.689378 -21.209184 L -158.13476 -21.242391 -158.34465 -21.583177 -157.978318 -21.762997 Z M -159.276091 -22.03064 L -159.449525 -21.817436 -159.850959 -22.027147 -159.40292 -22.290473 Z M -160.302371 -21.861491 L -159.997205 -21.99251 -160.177322 -21.735554 Z"/>
<path data-iso="US-IA" data-country="US" data-name="Iowa" d="M -91.217706 -43.50055 L -91.06468 -42.750914 -90.167533 -42.122475 -90.180954 -41.809354 -91.04589 -41.414085 -90.952233 -40.954047 -91.391613 -40.384038 -91.7292543 -40.6136347 -95.7660287 -40.5853527 -96.129505 -41.971673 -96.6396948 -42.736716 -96.4363403 -43.1204988 -96.5994244 -43.5003786 Z"/>
<path data-iso="US-ID" data-country="US" data-name="Idaho" d="M -117.0262469 -42.000255 L -116.8938015 -44.1619186 -117.242684 -44.3965493 -116.4631465 -45.6112757 -117.06263 -46.352522 -117.0323503 -48.9991971 -116.0492317 -49.0008447 -116.049108 -47.976842 -115.722648 -47.695118 -115.759304 -47.423862 -114.766786 -46.696902 -114.324615 -46.653417 -114.564936 -45.55771 -113.93526 -45.694341 -112.854267 -44.359588 -111.468002 -44.538951 -111.384824 -44.754954 -111.0524623 -44.4761567 -111.046805 -42.0016282 Z"/>
<path data-iso="US-IL" data-country="US" data-name="Illinois" d="M -90.946259 -41.094734 L -91.04589 -41.414085 -90.461432 -41.5235342 -90.1496142 -41.9148671 -90.6409949 -42.5079428 -87.0199244 -42.4935004 -87.207774 -41.760956 -87.5233284 -41.7603497 -87.658745 -39.135997 -87.495799 -38.740699 -87.9880989 -38.2572144 -88.0670941 -37.4882977 -88.470224 -37.396255 -88.4601887 -37.0744723 -88.9663559 -37.2300973 -89.1330128 -36.9820008 -89.3804195 -37.0410888 -89.5149712 -37.6906283 -90.360235 -38.228008 -90.1105714 -38.8487992 -90.6259544 -38.8904536 -90.7309993 -39.2561806 -91.370009 -39.732524 -91.505828 -40.238839 Z"/>
<path data-iso="US-IN" data-country="US" data-name="Indiana" d="M -84.8143172 -38.784696 L -85.4360907 -38.7284965 -86.0397055 -37.9592326 -86.3610631 -38.1967278 -86.638265 -37.842718 -86.820071 -37.999392 -87.111133 -37.782512 -87.5874132 -37.9752832 -88.090137 -37.8169208 -87.9880989 -38.2572144 -87.495799 -38.740699 -87.658745 -39.135997 -87.5233284 -41.7603497 -84.805883 -41.760216 Z"/>
<path data-iso="US-KS" data-country="US" data-name="Kansas" d="M -102.0419375 -37.1321206 L -102.0517919 -40.0032291 -95.3080545 -40.0000001 -94.929574 -39.888754 -95.1105178 -39.5445876 -94.5882049 -39.1497871 -94.6179515 -36.9985962 Z"/>
<path data-iso="US-KY" data-country="US" data-name="Kentucky" d="M -82.497285 -37.942903 L -81.9651528 -37.541012 -83.690714 -36.582581 -88.070532 -36.678118 -88.0533223 -36.497118 -89.41822 -36.499029 -89.15908 -36.666352 -89.086526 -37.165602 -88.4601887 -37.0744723 -88.476592 -37.386875 -88.072244 -37.4819637 -87.9039735 -37.9254879 -86.638265 -37.842718 -86.3610631 -38.1967278 -86.0397055 -37.9592326 -85.4360907 -38.7284965 -84.8135018 -38.7853985 -84.7513867 -39.1475251 -83.6686327 -38.6264077 -82.886094 -38.7552011 Z"/>
<path data-iso="US-LA" data-country="US" data-name="Louisiana" d="M -88.8396614 -30.1023251 L -88.7950841 -29.7652944 -89.1424469 -29.4299999 -88.9188262 -29.1309667 -89.4227715 -28.8546604 -89.6053497 -29.1993523 -90.9198894 -28.9923572 -92.0781496 -29.5318159 -93.2536173 -29.728061 -93.811849 -29.5954329 -93.9267407 -29.8121547 -93.5078656 -31.0319267 -94.0421928 -31.9933661 -94.0429641 -33.0192302 -91.09693 -32.986376 -91.116008 -32.4831038 -90.9009892 -32.3250969 -91.515462 -31.6303355 -91.6374581 -30.9992681 -89.7307471 -31.0046321 -89.8522164 -30.6618607 -89.5812499 -30.1869095 Z"/>
<path data-iso="US-MA" data-country="US" data-name="Massachusetts" d="M -71.3813327 -42.013737 L -73.5082102 -42.086134 -73.264851 -42.745853 -70.7329801 -42.8754003 -70.4995384 -42.6787871 -70.6243839 -42.1552437 -70.0602092 -42.104803 -69.8657995 -41.7979064 -69.9620099 -41.501363 -70.477838 -41.4804435 -69.9051065 -41.2329115 -70.8622445 -41.2099615 Z"/>
<path data-iso="US-MD" data-country="US" data-name="Maryland" d="M -78.7754962 -39.645567 L -79.4870169 -39.2058766 -79.4767594 -39.7211311 -75.788594 -39.7222006 -75.6936638 -38.4600811 -75.023993 -38.308885 -75.166435 -38.027834 -76.2366082 -37.8865288 -77.041807 -38.4007357 -77.284642 -38.3426642 -76.909366 -38.8928623 -77.4614206 -39.0754086 -77.8373449 -39.6055848 Z"/>
<path data-iso="US-ME" data-country="US" data-name="Maine" d="M -68.4150967 -47.2874561 L -67.7901984 -47.0672248 -67.8181093 -45.6937492 -67.4500178 -45.6024786 -67.4292644 -45.1934861 -66.8854174 -44.7941927 -68.303483 -44.0561894 -68.9806413 -43.9594029 -68.6732916 -43.9163819 -68.8269162 -43.7357238 -69.4092707 -43.8108265 -70.1559866 -43.5244518 -70.5613593 -42.9222206 -70.9884271 -43.3895544 -71.0841694 -45.3054741 -70.6348875 -45.3834186 -69.9971231 -46.6955228 -69.22447 -47.4598397 -68.9000329 -47.1777412 Z"/>
<path data-iso="US-MI" data-country="US" data-name="Michigan" d="M -83.415851 -41.733794 L -87.207774 -41.760956 -87.013234 -44.131905 -86.686288 -44.881002 -86.249548 -45.236125 -87.101133 -45.44423 -87.659952 -45.107512 -87.65735 -45.368754 -87.888052 -45.354697 -87.781419 -45.681483 -88.102461 -45.921546 -90.395069 -46.533768 -89.483385 -48.013716 -88.173112 -48.230836 -84.8601389 -46.8889167 -84.5568333 -46.4608056 -84.129 -46.5305 -83.9554722 -46.05675 -83.5719444 -46.1057778 -83.5971667 -45.8212778 -82.5186111 -45.3386389 -82.1228056 -43.5911944 -82.5189332 -42.6137372 Z"/>
<path data-iso="US-MN" data-country="US" data-name="Minnesota" d="M -96.4533065 -43.5003923 L -96.4530892 -45.3006404 -96.8576095 -45.6059699 -96.5543975 -46.084065 -97.2338116 -48.9978863 -95.1531944 -48.9988611 -95.1533889 -49.3844722 -94.9573889 -49.3701944 -94.6453611 -48.7440278 -93.7933611 -48.5163056 -92.9547778 -48.6315556 -92.3699167 -48.2202778 -92.0552222 -48.3593611 -91.5675 -48.0437778 -90.88575 -48.2459444 -89.483385 -48.013716 -89.957102 -47.291103 -90.6627778 -47.3025 -92.2920282 -46.6679688 -92.294033 -46.0743771 -92.869493 -45.7162613 -92.6464624 -45.4417549 -92.8065503 -44.7501579 -91.432522 -43.996827 -91.217706 -43.50055 Z"/>
<path data-iso="US-MO" data-country="US" data-name="Missouri" d="M -94.5889777 -39.1525139 L -95.1105178 -39.5445876 -94.929574 -39.888754 -95.4108653 -40.0357798 -95.7660287 -40.5853527 -91.7292543 -40.6136347 -91.42041 -40.378014 -91.370009 -39.732524 -90.7309993 -39.2561806 -90.6608041 -38.9245796 -90.1090694 -38.8465097 -90.3507937 -38.2115546 -89.5166956 -37.6925556 -89.5207101 -37.2836697 -89.098843 -36.95785 -89.217447 -36.576159 -89.566817 -36.564216 -89.706932 -36.000981 -90.37789 -35.9957227 -90.064196 -36.3024851 -90.1521672 -36.4979542 -94.6178753 -36.4995 Z"/>
<path data-iso="US-MS" data-country="US" data-name="Mississippi" d="M -89.5790477 -30.1849741 L -89.8039186 -30.5495446 -89.7307471 -31.0046321 -91.6374581 -30.9992681 -91.515462 -31.6303355 -90.9009892 -32.3250969 -91.151318 -32.6158829 -91.043624 -33.2746001 -91.227857 -33.6830373 -91.034565 -33.6729823 -91.087921 -33.9752994 -90.309297 -34.9956588 -88.2000237 -34.9955693 -88.4731014 -31.8939025 -88.38667 -30.1594632 Z"/>
<path data-iso="US-MT" data-country="US" data-name="Montana" d="M -111.0531243 -44.6249298 L -111.384824 -44.754954 -111.468002 -44.538951 -112.854267 -44.359588 -113.93526 -45.694341 -114.564936 -45.55771 -114.320745 -46.647063 -114.766786 -46.696902 -115.759304 -47.423862 -115.722648 -47.695118 -116.049108 -47.976842 -116.0492317 -49.0008447 -104.048704 -48.9998768 -104.0396963 -44.9979762 -111.0545859 -45.0009381 Z"/>
<path data-iso="US-NC" data-country="US" data-name="North Carolina" d="M -75.797497 -36.550916 L -75.400849 -35.558718 -75.484571 -35.187577 -76.504213 -34.539596 -76.999666 -34.617009 -77.556732 -34.353651 -77.943061 -33.75377 -78.5413536 -33.8513675 -79.6764943 -34.805065 -80.7974606 -34.8198035 -81.034223 -35.1492065 -84.3218293 -34.988494 -83.8802756 -35.5188204 -82.0338533 -36.1205285 -81.6774572 -36.588157 Z"/>
<path data-iso="US-ND" data-country="US" data-name="North Dakota" d="M -104.0456224 -45.9452802 L -104.048704 -48.9998768 -97.2288219 -49.0004614 -96.5608017 -45.9375548 Z"/>
<path data-iso="US-NE" data-country="US" data-name="Nebraska" d="M -104.0531883 -41.0016826 L -104.0531795 -43.0012719 -97.3526294 -42.8741909 -96.3864247 -42.4758816 -95.871871 -41.301813 -95.885349 -40.721093 -95.3080545 -40.0000001 -102.0517919 -40.0032291 -102.051577 -41.00236 Z"/>
<path data-iso="US-NH" data-country="US" data-name="New Hampshire" d="M -70.8242261 -43.1780919 L -70.5613593 -42.9222206 -71.2948705 -42.6972433 -72.5571391 -42.8531159 -72.0680753 -44.2729058 -71.577025 -44.5021193 -71.2842303 -45.3023608 -71.0841694 -45.3054741 Z"/>
<path data-iso="US-NJ" data-country="US" data-name="New Jersey" d="M -74.258843 -40.498875 L -73.90214 -40.492121 -74.032903 -39.739032 -75.0166569 -38.7911303 -75.563386 -39.4830549 -75.4425909 -39.7803779 -74.7219656 -40.1499284 -75.1950644 -40.5775756 -75.1314914 -40.9904162 -74.6955425 -41.3576501 -73.893628 -40.997165 Z"/>
<path data-iso="US-NM" data-country="US" data-name="New Mexico" d="M -109.043238 -36.9989678 L -103.0024413 -37.0000868 -103.064631 -32.0003914 -106.6186385 -32.000753 -106.5281875 -31.7838826 -108.2085021 -31.7836928 -108.2084835 -31.3333734 -109.050048 -31.332366 Z"/>
<path data-iso="US-NV" data-country="US" data-name="Nevada" d="M -120.0065184 -39.0032856 L -119.9995297 -41.9949298 -114.0413718 -41.9937386 -114.046606 -36.195271 -114.1515771 -36.0247922 -114.7542437 -36.0890025 -114.6329611 -35.0018894 Z"/>
<path data-iso="US-NY" data-country="US" data-name="New York" d="M -71.790972 -41.184101 L -73.015534 -40.624482 -74.225332 -40.476578 -73.893628 -40.997165 -74.982513 -41.480319 -75.3456381 -41.9949544 -79.761785 -41.9988366 -79.7618404 -42.5161334 -78.9353817 -42.8282908 -79.2006667 -43.4504722 -76.7966872 -43.6311274 -76.3127222 -44.1990556 -74.9928056 -44.9775 -73.3431662 -45.0107247 -73.264851 -42.745853 -73.481924 -41.212707 -73.727811 -41.10069 Z"/>
<path data-iso="US-OH" data-country="US" data-name="Ohio" d="M -82.5516898 -38.4031554 L -82.8901816 -38.7562594 -83.6686327 -38.6264077 -84.4528246 -39.1192549 -84.8199343 -39.105441 -84.8059801 -41.6961278 -83.415851 -41.733794 -83.1125519 -41.9593496 -82.3974747 -41.6765597 -80.5210906 -42.3246919 -80.518991 -40.638801 -80.8311152 -39.7070732 -81.6843366 -39.2704222 -81.7616063 -38.925286 -82.0373829 -39.0242707 Z"/>
<path data-iso="US-OK" data-country="US" data-name="Oklahoma" d="M -96.2612632 -33.7670559 L -96.9805556 -33.9561111 -97.1343329 -33.7187017 -97.2053814 -33.9155875 -97.9666291 -33.8822793 -98.1149348 -34.1551314 -99.6971971 -34.378226 -100.0003928 -34.5605578 -100.0004065 -36.4999432 -103.0024228 -36.5003737 -103.0024413 -37.0000868 -94.6179515 -36.9985962 -94.4858248 -33.6377602 -95.2197099 -33.9632254 Z"/>
<path data-iso="US-OR" data-country="US" data-name="Oregon" d="M -124.375047 -42.02923 L -124.70299 -42.761726 -124.215152 -43.953775 -124.010805 -45.708285 -124.1568004 -46.249825 -123.1209402 -46.1863066 -122.7640049 -45.6572705 -122.2966859 -45.5437331 -118.935288 -46.00067 -116.9159938 -45.9953489 -116.4634986 -45.6158638 -117.242684 -44.3965493 -116.8938015 -44.1619186 -117.0262469 -42.000255 Z"/>
<path data-iso="US-PA" data-country="US" data-name="Pennsylvania" d="M -80.5210906 -42.3246919 L -79.7618404 -42.5161334 -79.761785 -41.9988366 -75.3595475 -41.9995045 -74.689908 -41.3645462 -75.2040737 -40.6917488 -74.7219656 -40.1499284 -75.4140163 -39.8016236 -80.5191235 -39.7212492 Z"/>
<path data-iso="US-PR" data-country="US" data-name="Puerto Rico" d="M -67.8491857 -18.2723103 L -67.6878456 -18.0635026 -67.9326564 -17.9058901 -68.1079397 -18.1878739 Z M -65.157918 -18.398267 L -65.1978089 -17.9976478 -66.5308905 -17.7306659 -67.2713341 -17.801369 -67.6479783 -18.3980503 -67.1008943 -18.6663822 Z"/>
<path data-iso="US-RI" data-country="US" data-name="Rhode Island" d="M -71.799188 -42.008053 L -71.3813271 -42.0189359 -71.088571 -41.431315 -71.790972 -41.184101 Z"/>
<path data-iso="US-SC" data-country="US" data-name="South Carolina" d="M -81.129756 -32.165839 L -81.4919573 -33.0090994 -82.8766111 -34.4750749 -83.3420027 -34.6802924 -83.1089924 -35.0012396 -82.392084 -35.2153897 -81.034223 -35.1492065 -80.7974606 -34.8198035 -79.6764943 -34.805065 -78.5413536 -33.8513675 -79.3410261 -32.9867382 -80.751429 -32.033468 Z"/>
<path data-iso="US-SD" data-country="US" data-name="South Dakota" d="M -96.5613655 -45.9352504 L -96.8576095 -45.6059699 -96.4530892 -45.3006404 -96.6031978 -43.4509301 -96.4363403 -43.1204988 -96.6397162 -42.7370312 -96.4402046 -42.4900083 -97.237868 -42.853139 -98.035034 -42.764205 -98.4985499 -42.9985598 -104.0531795 -43.0012719 -104.0456224 -45.9452802 Z"/>
<path data-iso="US-TN" data-country="US" data-name="Tennessee" d="M -90.310298 -35.004295 L -90.064768 -35.13894 -90.179265 -35.385194 -89.9046661 -35.519308 -89.956252 -35.733388 -89.645346 -35.891419 -89.539232 -36.497934 -88.0533223 -36.497118 -88.070532 -36.678118 -81.6472191 -36.6117066 -82.0338533 -36.1205285 -83.8802756 -35.5188204 -84.3218293 -34.988494 Z"/>
<path data-iso="US-TX" data-country="US" data-name="Texas" d="M -93.7950654 -29.5354517 L -94.5770952 -29.3047827 -96.8233633 -27.868941 -97.2079835 -27.1089034 -96.9792906 -25.9708711 -97.42325 -25.84021 -99.0845303 -26.3979773 -99.5137 -27.56953 -101.40112 -29.7712 -102.67399 -29.74463 -102.86766 -29.22344 -103.28628 -28.97692 -104.50895 -29.63309 -104.92263 -30.60366 -106.639738 -31.9813236 -103.064631 -32.0003914 -103.0416536 -36.5004529 -100.0004065 -36.4999432 -100.0003928 -34.5605578 -99.6971971 -34.378226 -98.1149348 -34.1551314 -97.9666291 -33.8822793 -97.2053814 -33.9155875 -97.1343329 -33.7187017 -96.9805556 -33.9561111 -96.3474395 -33.686667 -95.2197099 -33.9632254 -94.0659461 -33.5805826 -94.0422605 -31.993621 -93.5078656 -31.0319267 Z"/>
<path data-iso="US-UT" data-country="US" data-name="Utah" d="M -114.0501375 -36.9997794 L -114.0413718 -41.9937386 -111.046805 -42.0016282 -111.0468088 -40.9978699 -109.0500266 -41.000694 -109.045182 -36.9989819 Z"/>
<path data-iso="US-VA" data-country="US" data-name="Virginia" d="M -77.315795 -38.4784202 L -76.2366082 -37.8865288 -75.166435 -38.027834 -75.8867018 -37.0556781 -75.797497 -36.550916 -83.6753671 -36.6007706 -81.967705 -37.5377829 -81.6781083 -37.2014139 -80.309331 -37.50288 -79.6492004 -38.5915278 -79.282971 -38.418095 -78.403697 -39.167451 -78.347087 -39.466012 -77.8281485 -39.1322818 -77.5663675 -39.3059713 -77.0677094 -38.8995202 Z"/>
<path data-iso="US-VT" data-country="US" data-name="Vermont" d="M -73.3391146 -44.917569 L -71.4654134 -45.0135677 -71.5768334 -44.5024035 -72.0327952 -44.3204841 -72.3803469 -43.5736252 -72.4584471 -42.72696 -73.276094 -42.746001 Z"/>
<path data-iso="US-WA" data-country="US" data-name="Washington" d="M -117.0323503 -48.9991971 L -116.9159938 -45.9953489 -122.6732744 -45.6175375 -123.1209402 -46.1863066 -124.1568004 -46.249825 -124.2768181 -47.1977703 -124.8360916 -48.1761173 -124.72725 -48.4934444 -123.2484444 -48.2840278 -123.2678889 -48.694 -123.0085 -48.8312222 -123.3222397 -49.0020717 Z"/>
<path data-iso="US-WI" data-country="US" data-name="Wisconsin" d="M -86.7345252 -44.7730825 L -87.125079 -43.670445 -87.0199244 -42.4935004 -90.6409949 -42.5079428 -91.144706 -42.905964 -91.057918 -43.255366 -91.366642 -43.937463 -92.8065503 -44.7501579 -92.6464624 -45.4417549 -92.8893149 -45.6412174 -92.294033 -46.0743771 -92.2920282 -46.6679688 -90.6627778 -47.3025 -89.957102 -47.291103 -90.393567 -46.532563 -88.102461 -45.921546 -87.781419 -45.681483 -87.888052 -45.354697 -87.65735 -45.368754 -87.659952 -45.107512 -87.101133 -45.44423 -86.249548 -45.236125 Z"/>
<path data-iso="US-WV" data-country="US" data-name="West Virginia" d="M -77.8322522 -39.6014295 L -77.8281485 -39.1322818 -78.347087 -39.466012 -78.403697 -39.167451 -79.282971 -38.418095 -79.6492004 -38.5915278 -80.46482 -37.426144 -81.6781083 -37.2014139 -82.637306 -38.13905 -82.0373829 -39.0242707 -81.7630386 -38.9245064 -81.6843366 -39.2704222 -80.8793134 -39.6217568 -80.627171 -40.619936 -80.5191235 -39.7212492 -79.4767594 -39.7211311 -79.4870169 -39.2058766 -78.7754962 -39.645567 Z"/>
<path data-iso="US-WY" data-country="US" data-name="Wyoming" d="M -104.0531883 -41.0016826 L -111.0468088 -40.9978699 -111.0545859 -45.0009381 -104.0577568 -44.9975418 Z"/>
</svg>
